<?xml version="1.0" encoding="UTF-8" standalone="no"?>
<!-- Generator: Adobe Illustrator 19.0.0, SVG Export Plug-In . SVG Version: 6.00 Build 0)  -->

<svg
   xmlns:dc="http://purl.org/dc/elements/1.1/"
   xmlns:cc="http://creativecommons.org/ns#"
   xmlns:rdf="http://www.w3.org/1999/02/22-rdf-syntax-ns#"
   xmlns:svg="http://www.w3.org/2000/svg"
   xmlns="http://www.w3.org/2000/svg"
   xmlns:sodipodi="http://sodipodi.sourceforge.net/DTD/sodipodi-0.dtd"
   xmlns:inkscape="http://www.inkscape.org/namespaces/inkscape"
   version="1.1"
   id="Capa_1"
   x="0px"
   y="0px"
   viewBox="0 0 500 250"
   xml:space="preserve"
   sodipodi:docname="algorithm.svg"
   inkscape:version="0.92.2 5c3e80d, 2017-08-06"
   width="500"
   height="250"><metadata
     id="metadata59"><rdf:RDF><cc:Work
         rdf:about=""><dc:format>image/svg+xml</dc:format><dc:type
           rdf:resource="http://purl.org/dc/dcmitype/StillImage" /><dc:title></dc:title></cc:Work></rdf:RDF></metadata><defs
     id="defs57" /><sodipodi:namedview
     pagecolor="#ffffff"
     bordercolor="#666666"
     borderopacity="1"
     objecttolerance="10"
     gridtolerance="10"
     guidetolerance="10"
     inkscape:pageopacity="0"
     inkscape:pageshadow="2"
     inkscape:window-width="1305"
     inkscape:window-height="660"
     id="namedview55"
     showgrid="false"
     inkscape:zoom="1.13"
     inkscape:cx="256"
     inkscape:cy="198.02899"
     inkscape:window-x="0"
     inkscape:window-y="0"
     inkscape:window-maximized="0"
     inkscape:current-layer="Capa_1" /><g
     id="g22"
     style="fill:#193264;fill-opacity:0.78431373"
     transform="matrix(0.39845727,0,0,0.37493637,271.9185,32.112735)"><g
       id="g20"
       style="fill:#193264;fill-opacity:0.78431373"><g
         id="g18"
         style="fill:#193264;fill-opacity:0.78431373"><path
           d="M 486.4,0 H 25.6 C 11.468,0.015 0.015,11.468 0,25.6 v 460.8 c 0.015,14.132 11.468,25.585 25.6,25.6 h 460.8 c 14.132,-0.015 25.585,-11.468 25.6,-25.6 V 25.6 C 511.985,11.468 500.532,0.015 486.4,0 Z m 8.533,486.4 c -0.005,4.711 -3.822,8.529 -8.533,8.533 H 25.6 C 20.89,494.927 17.073,491.11 17.067,486.4 V 85.333 H 494.934 V 486.4 Z m 0,-418.133 H 17.067 V 25.6 c 0.006,-4.71 3.823,-8.527 8.533,-8.533 h 460.8 c 4.711,0.005 8.529,3.822 8.533,8.533 z"
           id="path2"
           inkscape:connector-curvature="0"
           style="fill:#193264;fill-opacity:0.78431373" /><path
           d="m 36.608,36.608 c -3.3,3.365 -3.3,8.753 0,12.117 3.365,3.3 8.753,3.3 12.117,0 3.3,-3.365 3.3,-8.752 0,-12.117 -3.421,-3.159 -8.696,-3.159 -12.117,0 z"
           id="path4"
           inkscape:connector-curvature="0"
           style="fill:#193264;fill-opacity:0.78431373" /><path
           d="M 81.579,35.583 C 81.103,35.259 80.586,35 80.041,34.812 c -0.484,-0.246 -1.002,-0.417 -1.537,-0.508 -1.663,-0.348 -3.393,-0.171 -4.95,0.508 -1.033,0.434 -1.984,1.041 -2.813,1.796 -3.3,3.365 -3.3,8.753 0,12.117 0.83,0.752 1.781,1.358 2.813,1.792 1.027,0.438 2.13,0.67 3.246,0.683 0.571,-0.016 1.141,-0.073 1.704,-0.171 0.535,-0.095 1.053,-0.268 1.537,-0.513 0.544,-0.188 1.062,-0.447 1.538,-0.771 0.425,-0.338 0.85,-0.679 1.279,-1.021 0.341,-0.429 0.683,-0.854 1.021,-1.367 0.34,-0.435 0.601,-0.925 0.771,-1.45 0.245,-0.485 0.418,-1.003 0.512,-1.538 0.098,-0.563 0.155,-1.133 0.171,-1.704 -0.033,-2.259 -0.917,-4.422 -2.475,-6.059 -0.429,-0.339 -0.854,-0.681 -1.279,-1.023 z"
           id="path6"
           inkscape:connector-curvature="0"
           style="fill:#193264;fill-opacity:0.78431373" /><path
           d="m 118.783,39.421 c -0.188,-0.543 -0.448,-1.058 -0.771,-1.533 -0.312,-0.448 -0.653,-0.876 -1.021,-1.28 -2.441,-2.461 -6.129,-3.201 -9.331,-1.872 -3.202,1.329 -5.281,4.464 -5.261,7.931 0.014,3.45 2.096,6.556 5.282,7.879 3.187,1.323 6.856,0.606 9.31,-1.82 0.366,-0.405 0.707,-0.833 1.021,-1.279 0.324,-0.476 0.583,-0.993 0.771,-1.538 0.245,-0.485 0.418,-1.003 0.512,-1.538 0.098,-0.563 0.155,-1.133 0.171,-1.704 -0.02,-0.573 -0.077,-1.143 -0.171,-1.708 -0.094,-0.535 -0.267,-1.053 -0.512,-1.538 z"
           id="path8"
           inkscape:connector-curvature="0"
           style="fill:#193264;fill-opacity:0.78431373" /><path
           d="M 315.733,34.133 H 196.267 c -4.713,0 -8.533,3.82 -8.533,8.533 0,4.713 3.82,8.533 8.533,8.533 h 119.467 c 4.713,0 8.533,-3.82 8.533,-8.533 0,-4.713 -3.821,-8.533 -8.534,-8.533 z"
           id="path10"
           inkscape:connector-curvature="0"
           style="fill:#193264;fill-opacity:0.78431373" /><path
           d="M 469.333,34.133 H 460.8 c -4.713,0 -8.533,3.82 -8.533,8.533 0,4.713 3.821,8.533 8.533,8.533 h 8.533 c 4.713,0 8.533,-3.82 8.533,-8.533 0,-4.713 -3.82,-8.533 -8.533,-8.533 z"
           id="path12"
           inkscape:connector-curvature="0"
           style="fill:#193264;fill-opacity:0.78431373" /><path
           d="m 426.667,34.133 h -8.533 c -4.713,0 -8.533,3.82 -8.533,8.533 0,4.713 3.82,8.533 8.533,8.533 h 8.533 c 4.713,0 8.533,-3.82 8.533,-8.533 0,-4.713 -3.82,-8.533 -8.533,-8.533 z"
           id="path14"
           inkscape:connector-curvature="0"
           style="fill:#193264;fill-opacity:0.78431373" /><path
           d="m 76.8,196.267 c 20.265,-0.028 37.724,-14.283 41.804,-34.133 h 31.462 l -11.034,11.034 c -2.176,2.151 -3.033,5.303 -2.247,8.26 0.786,2.957 3.096,5.267 6.053,6.053 2.957,0.786 6.109,-0.071 8.26,-2.247 l 23.1,-23.1 h 30.6 V 179.2 c 0.009,9.422 7.645,17.057 17.067,17.067 H 358.4 c 9.422,-0.009 17.057,-7.645 17.067,-17.067 V 162.133 H 460.8 v 102.4 H 302.2 l 11.034,-11.034 c 2.178,-2.151 3.037,-5.304 2.251,-8.262 -0.786,-2.958 -3.097,-5.269 -6.055,-6.055 -2.958,-0.786 -6.111,0.073 -8.262,2.251 l -23.1,23.1 H 256 v -17.067 c -0.009,-9.422 -7.645,-17.057 -17.067,-17.067 H 102.4 c -9.422,0.009 -17.057,7.645 -17.067,17.067 v 51.2 c 0.009,9.422 7.645,17.057 17.067,17.067 h 59.733 v 30.6 L 151.1,335.3 c -3.338,-3.296 -8.711,-3.279 -12.029,0.038 -3.317,3.317 -3.334,8.69 -0.038,12.029 l 23.1,23.1 V 384 H 128 c -3.232,-10e-4 -6.188,1.825 -7.633,4.717 l -34.133,68.267 c -1.322,2.645 -1.181,5.787 0.374,8.303 1.555,2.516 4.302,4.047 7.259,4.047 h 119.467 c 3.232,10e-4 6.188,-1.825 7.633,-4.717 L 235.675,435.2 h 119.192 l -11.034,11.034 c -2.178,2.151 -3.037,5.304 -2.251,8.262 0.786,2.958 3.097,5.269 6.055,6.055 2.958,0.786 6.111,-0.073 8.262,-2.251 l 23.1,-23.1 h 14.396 c 4.381,21.461 24.3,36.119 46.093,33.917 21.793,-2.201 38.378,-20.547 38.378,-42.451 0,-21.904 -16.586,-40.249 -38.378,-42.451 -21.793,-2.201 -41.712,12.456 -46.093,33.917 H 379 l -23.1,-23.1 c -3.338,-3.296 -8.711,-3.28 -12.029,0.038 -3.317,3.317 -3.334,8.69 -0.038,12.029 l 11.033,11.034 H 244.208 L 255.1,396.35 c 1.323,-2.645 1.181,-5.787 -0.374,-8.303 C 253.171,385.531 250.424,384 247.467,384 H 179.2 v -13.533 l 23.1,-23.1 c 3.296,-3.338 3.28,-8.711 -0.038,-12.029 -3.318,-3.318 -8.69,-3.334 -12.029,-0.038 L 179.2,346.333 v -30.6 h 59.733 c 9.422,-0.009 17.057,-7.645 17.067,-17.067 V 281.6 h 22.067 l 23.1,23.1 c 3.338,3.296 8.711,3.28 12.029,-0.038 3.317,-3.317 3.334,-8.69 0.038,-12.029 L 302.2,281.6 h 167.133 c 2.263,10e-4 4.434,-0.898 6.035,-2.499 1.6,-1.6 2.499,-3.771 2.499,-6.035 V 153.6 c 10e-4,-2.263 -0.898,-4.434 -2.499,-6.035 -1.6,-1.6 -3.771,-2.499 -6.035,-2.499 H 375.466 V 128 c -0.009,-9.422 -7.645,-17.057 -17.067,-17.067 H 221.867 C 212.445,110.942 204.81,118.578 204.8,128 v 17.067 h -30.6 l -23.1,-23.1 c -3.338,-3.296 -8.711,-3.28 -12.029,0.038 -3.317,3.317 -3.334,8.69 -0.038,12.029 l 11.033,11.034 h -31.462 c -4.491,-22 -25.264,-36.755 -47.515,-33.749 -22.251,3.005 -38.366,22.742 -36.86,45.145 1.506,22.403 20.118,39.803 42.571,39.803 z m 358.4,204.8 c 14.138,0 25.6,11.461 25.6,25.6 0,14.139 -11.462,25.6 -25.6,25.6 -14.138,0 -25.6,-11.461 -25.6,-25.6 0.015,-14.132 11.468,-25.585 25.6,-25.6 z m -201.542,0 -25.6,51.2 H 107.675 l 25.6,-51.2 z M 102.4,298.667 v -51.2 h 136.533 l 0.006,25.569 -0.006,0.031 0.006,0.031 0.006,25.569 H 102.4 Z M 221.867,128 H 358.4 l 0.006,25.569 -0.006,0.031 0.006,0.031 0.006,25.569 H 221.867 Z M 76.8,128 c 14.138,0 25.6,11.461 25.6,25.6 0,14.138 -11.462,25.6 -25.6,25.6 -14.138,0 -25.6,-11.461 -25.6,-25.6 0.015,-14.132 11.468,-25.585 25.6,-25.6 z"
           id="path16"
           inkscape:connector-curvature="0"
           style="fill:#193264;fill-opacity:0.78431373" /></g></g></g><g
     id="g24"
     transform="translate(0,-262)" /><g
     id="g26"
     transform="translate(0,-262)" /><g
     id="g28"
     transform="translate(0,-262)" /><g
     id="g30"
     transform="translate(0,-262)" /><g
     id="g32"
     transform="translate(0,-262)" /><g
     id="g34"
     transform="translate(0,-262)" /><g
     id="g36"
     transform="translate(0,-262)" /><g
     id="g38"
     transform="translate(0,-262)" /><g
     id="g40"
     transform="translate(0,-262)" /><g
     id="g42"
     transform="translate(0,-262)" /><g
     id="g44"
     transform="translate(0,-262)" /><g
     id="g46"
     transform="translate(0,-262)" /><g
     id="g48"
     transform="translate(0,-262)" /><g
     id="g50"
     transform="translate(0,-262)" /><g
     id="g52"
     transform="translate(0,-262)" /><g
     id="g5491"
     transform="matrix(0.357511,0,0,0.34131613,15.629541,44.16297)"
     style="fill:#193264;fill-opacity:0.78431374"><g
       id="g5326"
       style="fill:#193264;fill-opacity:0.78431374"><g
         id="g5324"
         style="fill:#193264;fill-opacity:0.78431374"><path
           id="path5322"
           d="m 42.4,154.333 c -23.3,0 -42.4,19 -42.4,42.3 v 30.3 c 0,23.3 19,42.3 42.3,42.3 23.3,0 42.4,-18.9 42.4,-42.3 v -30.3 c 0,-23.3 -19,-42.3 -42.3,-42.3 z m 14.1,72.599 c 0,7.8 -6.3,14.1 -14.1,14.1 -7.8,0 -14.1,-6.3 -14.1,-14.1 v -30.3 c 0,-7.8 6.3,-14.1 14.1,-14.1 7.8,0 14.1,6.3 14.1,14.1 z"
           inkscape:connector-curvature="0"
           style="fill:#193264;fill-opacity:0.78431374" /></g></g><g
       id="g5332"
       style="fill:#193264;fill-opacity:0.78431374"><g
         id="g5330"
         style="fill:#193264;fill-opacity:0.78431374"><path
           id="path5328"
           d="m 98.8,0.132 c -23.3,0 -42.3,19 -42.3,42.3 v 30.3 c 0,23.4 18.9,42.3 42.3,42.3 23.3,0 42.3,-19 42.3,-42.3 v -30.3 c 0,-23.3 -19,-42.3 -42.3,-42.3 z m 14.1,72.6 c 0,7.8 -6.3,14.1 -14.1,14.1 -7.8,0 -14.1,-6.3 -14.1,-14.1 v -30.3 c 0,-7.8 6.3,-14.1 14.1,-14.1 7.8,0 14.1,6.3 14.1,14.1 z"
           inkscape:connector-curvature="0"
           style="fill:#193264;fill-opacity:0.78431374" /></g></g><g
       id="g5338"
       style="fill:#193264;fill-opacity:0.78431374"><g
         id="g5336"
         style="fill:#193264;fill-opacity:0.78431374"><path
           id="path5334"
           d="M 14.1,0.132 C 6.3,0.132 0,6.432 0,14.232 v 86.7 c 0,7.8 6.3,14.1 14.1,14.1 7.8,0 14.1,-6.3 14.1,-14.1 v -86.7 c 0,-7.8 -6.3,-14.1 -14.1,-14.1 z"
           inkscape:connector-curvature="0"
           style="fill:#193264;fill-opacity:0.78431374" /></g></g><g
       id="g5344"
       style="fill:#193264;fill-opacity:0.78431374"><g
         id="g5342"
         style="fill:#193264;fill-opacity:0.78431374"><path
           id="path5340"
           d="m 268.1,0.132 c -23.3,0 -42.3,19 -42.3,42.3 v 30.3 c 0,23.4 19,42.3 42.3,42.3 23.3,0 42.3,-19 42.3,-42.3 v -30.3 c 0,-23.3 -19,-42.3 -42.3,-42.3 z m 14.1,72.6 c 0,7.8 -6.3,14.1 -14.1,14.1 -7.8,0 -14.1,-6.3 -14.1,-14.1 v -30.3 c 0,-7.8 6.3,-14.1 14.1,-14.1 7.8,0 14.1,6.3 14.1,14.1 z"
           inkscape:connector-curvature="0"
           style="fill:#193264;fill-opacity:0.78431374" /></g></g><g
       id="g5350"
       style="fill:#193264;fill-opacity:0.78431374"><g
         id="g5348"
         style="fill:#193264;fill-opacity:0.78431374"><path
           id="path5346"
           d="m 183.5,0.132 c -7.8,0 -14.1,6.3 -14.1,14.1 v 86.7 c -0.1,7.8 6.3,14.1 14.1,14.1 7.8,0 14.1,-6.3 14.1,-14.1 v -86.7 c 0,-7.8 -6.3,-14.1 -14.1,-14.1 z"
           inkscape:connector-curvature="0"
           style="fill:#193264;fill-opacity:0.78431374" /></g></g><g
       id="g5356"
       style="fill:#193264;fill-opacity:0.78431374"><g
         id="g5354"
         style="fill:#193264;fill-opacity:0.78431374"><path
           id="path5352"
           d="m 437.4,0.132 c -23.3,0 -42.3,19 -42.3,42.3 v 30.3 c 0,23.4 19,42.3 42.3,42.3 23.3,0 42.3,-19 42.3,-42.3 v -30.3 c 0,-23.3 -19,-42.3 -42.3,-42.3 z m 14.1,72.6 c 0,7.8 -6.3,14.1 -14.1,14.1 -7.8,0 -14.1,-6.3 -14.1,-14.1 v -30.3 c 0,-7.8 6.3,-14.1 14.1,-14.1 7.8,0 14.1,6.3 14.1,14.1 z"
           inkscape:connector-curvature="0"
           style="fill:#193264;fill-opacity:0.78431374" /></g></g><g
       id="g5362"
       style="fill:#193264;fill-opacity:0.78431374"><g
         id="g5360"
         style="fill:#193264;fill-opacity:0.78431374"><path
           id="path5358"
           d="m 352.8,0.132 c -7.8,0 -14.1,6.3 -14.1,14.1 v 86.7 c 0,7.8 6.3,14.1 14.1,14.1 7.8,0 14.1,-6.3 14.1,-14.1 v -86.7 c 0,-7.8 -6.3,-14.1 -14.1,-14.1 z"
           inkscape:connector-curvature="0"
           style="fill:#193264;fill-opacity:0.78431374" /></g></g><g
       id="g5368"
       style="fill:#193264;fill-opacity:0.78431374"><g
         id="g5366"
         style="fill:#193264;fill-opacity:0.78431374"><path
           id="path5364"
           d="m 98.8,304.532 c -23.3,0 -42.3,19 -42.3,42.3 v 30.3 c 0,23.3 19,42.3 42.3,42.3 23.3,0 42.3,-19 42.3,-42.3 v -30.3 c 0,-23.3 -19,-42.3 -42.3,-42.3 z m 14.1,72.6 c 0,7.8 -6.3,14.1 -14.1,14.1 -7.8,0 -14.1,-6.3 -14.1,-14.1 v -30.3 c 0,-7.8 6.3,-14.1 14.1,-14.1 7.8,0 14.1,6.3 14.1,14.1 z"
           inkscape:connector-curvature="0"
           style="fill:#193264;fill-opacity:0.78431374" /></g></g><g
       id="g5374"
       style="fill:#193264;fill-opacity:0.78431374"><g
         id="g5372"
         style="fill:#193264;fill-opacity:0.78431374"><path
           id="path5370"
           d="m 14.1,304.532 c -7.8,0 -14.1,6.3 -14.1,14.1 v 86.7 c 0,7.8 6.3,14.1 14.1,14.1 7.8,0 14.1,-6.3 14.1,-14.1 v -86.7 c 0,-7.8 -6.3,-14.1 -14.1,-14.1 z"
           inkscape:connector-curvature="0"
           style="fill:#193264;fill-opacity:0.78431374" /></g></g><g
       id="g5380"
       style="fill:#193264;fill-opacity:0.78431374"><g
         id="g5378"
         style="fill:#193264;fill-opacity:0.78431374"><path
           id="path5376"
           d="m 432.8,269.132 c 0.4,0.1 0.7,0.1 0,0 z"
           inkscape:connector-curvature="0"
           style="fill:#193264;fill-opacity:0.78431374" /></g></g><g
       id="g5386"
       style="fill:#193264;fill-opacity:0.78431374"><g
         id="g5384"
         style="fill:#193264;fill-opacity:0.78431374"><path
           id="path5382"
           d="m 495.7,435.632 -28.7,-28.4 c 7.9,-7.7 12.8,-18.4 12.8,-30.1 v -30.3 c -1.2,-21.3 -15.7,-43.2 -46.1,-42.1 1.3,-11.7 0.9,-23.6 -0.9,-35.6 -0.4,0 -0.8,-0.1 0,-0.1 23.3,0 47,-13.4 47,-42.2 v -30.3 c 0,-23.3 -19,-42.3 -42.3,-42.3 -21.5,0 -39.4,16.2 -42,37 -26.4,-28.4 -64,-46.2 -105.7,-46.2 -36.6,0 -69.9,13.7 -95.4,36.2 -6.2,-15.8 -21.5,-27 -39.4,-27 -23.3,0 -42.3,19 -42.3,42.3 v 30.3 c 0,20.6 14.7,37.7 34.2,41.5 -1,7 -1.8,14.1 -1.8,21.4 0,79.8 64.9,144.7 144.7,144.7 24.5,0 47.6,-6.2 67.9,-17 l 78.1,78.1 c 15.5,16.3 44,16.9 59.9,0 17.1,-17 16,-43.9 0,-59.9 z m -58.3,-102.9 c 7.8,0 14.1,6.3 14.1,14.1 v 30.3 c 0,4 -1.7,7.6 -4.4,10.2 l -23.8,-23.8 v -16.7 c 1.2,-8.5 5.7,-13.4 14.1,-14.1 z m -14.1,-136.1 c 0,-7.8 6.3,-14.1 14.1,-14.1 7.8,0 14.1,6.3 14.1,14.1 v 30.3 c 0,7.8 -6.3,14.1 -14.1,14.1 -7.8,0 -14.1,-6.3 -14.1,-14.1 z m -254.2,13.5 c -6.3,9.6 -11.4,19.9 -15.3,30.8 h -0.1 c -7.2,-0.7 -12.8,-6.7 -12.8,-14 v -30.3 c 0,-7.8 6.3,-14.1 14.1,-14.1 7.8,0 14.1,6.3 14.1,14.1 z m 120.7,196.2 c -64.3,0 -116.5,-52.1 -116.5,-116.5 0,-64.3 52.1,-116.5 116.5,-116.5 64.4,0 116.5,52.1 116.5,116.5 -0.1,64.4 -52.2,116.5 -116.5,116.5 z m 185.8,69.4 c -5.3,5.3 -14.6,5.3 -19.9,0 l -74.1,-74.1 c 7.3,-6 14,-12.7 19.9,-19.9 l 74.1,74.1 c 5.1,5.4 5.8,14.2 0,19.9 z"
           inkscape:connector-curvature="0"
           style="fill:#193264;fill-opacity:0.78431374" /></g></g><g
       id="g5392"
       style="fill:#193264;fill-opacity:0.78431374"><g
         id="g5390"
         style="fill:#193264;fill-opacity:0.78431374"><path
           id="path5388"
           d="m 289.8,211.432 c -7.8,0 -14.1,6.3 -14.1,14.1 v 73.3 c 0,7.8 6.3,14.1 14.1,14.1 7.8,0 14.1,-6.3 14.1,-14.1 v -73.3 c 0,-7.699 -6.3,-14.1 -14.1,-14.1 z"
           inkscape:connector-curvature="0"
           style="fill:#193264;fill-opacity:0.78431374" /></g></g><g
       id="g5398"
       style="fill:#193264;fill-opacity:0.78431374"><g
         id="g5396"
         style="fill:#193264;fill-opacity:0.78431374"><path
           id="path5394"
           d="m 289.8,331.932 c -7.8,0 -14.1,6.3 -14.1,14.1 v 8.2 c 0,7.8 6.3,14.1 14.1,14.1 7.8,0 14.1,-6.3 14.1,-14.1 v -8.2 c 0,-7.8 -6.3,-14.1 -14.1,-14.1 z"
           inkscape:connector-curvature="0"
           style="fill:#193264;fill-opacity:0.78431374" /></g></g><g
       id="g5400"
       style="fill:#193264;fill-opacity:0.78431374" /><g
       id="g5402"
       style="fill:#193264;fill-opacity:0.78431374" /><g
       id="g5404"
       style="fill:#193264;fill-opacity:0.78431374" /><g
       id="g5406"
       style="fill:#193264;fill-opacity:0.78431374" /><g
       id="g5408"
       style="fill:#193264;fill-opacity:0.78431374" /><g
       id="g5410"
       style="fill:#193264;fill-opacity:0.78431374" /><g
       id="g5412"
       style="fill:#193264;fill-opacity:0.78431374" /><g
       id="g5414"
       style="fill:#193264;fill-opacity:0.78431374" /><g
       id="g5416"
       style="fill:#193264;fill-opacity:0.78431374" /><g
       id="g5418"
       style="fill:#193264;fill-opacity:0.78431374" /><g
       id="g5420"
       style="fill:#193264;fill-opacity:0.78431374" /><g
       id="g5422"
       style="fill:#193264;fill-opacity:0.78431374" /><g
       id="g5424"
       style="fill:#193264;fill-opacity:0.78431374" /><g
       id="g5426"
       style="fill:#193264;fill-opacity:0.78431374" /><g
       id="g5428"
       style="fill:#193264;fill-opacity:0.78431374" /></g></svg>