<?xml version="1.0" encoding="UTF-8" standalone="no"?>
<svg
   xmlns:dc="http://purl.org/dc/elements/1.1/"
   xmlns:cc="http://creativecommons.org/ns#"
   xmlns:rdf="http://www.w3.org/1999/02/22-rdf-syntax-ns#"
   xmlns:svg="http://www.w3.org/2000/svg"
   xmlns="http://www.w3.org/2000/svg"
   xmlns:sodipodi="http://sodipodi.sourceforge.net/DTD/sodipodi-0.dtd"
   xmlns:inkscape="http://www.inkscape.org/namespaces/inkscape"
   height="250"
   viewBox="0 0 374.99999 187.49999"
   width="500"
   version="1.1"
   id="svg18"
   sodipodi:docname="programming.svg"
   inkscape:version="0.92.2 5c3e80d, 2017-08-06">
  <metadata
     id="metadata24">
    <rdf:RDF>
      <cc:Work
         rdf:about="">
        <dc:format>image/svg+xml</dc:format>
        <dc:type
           rdf:resource="http://purl.org/dc/dcmitype/StillImage" />
        <dc:title></dc:title>
      </cc:Work>
    </rdf:RDF>
  </metadata>
  <defs
     id="defs22" />
  <sodipodi:namedview
     pagecolor="#ffffff"
     bordercolor="#666666"
     borderopacity="1"
     objecttolerance="10"
     gridtolerance="10"
     guidetolerance="10"
     inkscape:pageopacity="0"
     inkscape:pageshadow="2"
     inkscape:window-width="1407"
     inkscape:window-height="674"
     id="namedview20"
     showgrid="false"
     units="px"
     inkscape:zoom="1.31"
     inkscape:cx="266.14878"
     inkscape:cy="82.816961"
     inkscape:window-x="0"
     inkscape:window-y="0"
     inkscape:window-maximized="0"
     inkscape:current-layer="g4849" />
  <path
     d="m 118.03288,32.30868 h -5.48294 V 7.2478975 H 28.478111 V 32.30868 h -5.482945 c -5.038526,0 -9.138241,3.513465 -9.138241,7.831496 v 46.988971 c 0,4.318019 4.099715,7.831486 9.138241,7.831486 h 23.759428 v 6.265197 h -7.310593 v 3.1326 h 62.140049 v -3.1326 h -7.310594 v -6.265197 h 23.759424 c 5.03853,0 9.13824,-3.513467 9.13824,-7.831486 V 40.140176 c 0,-4.318031 -4.09971,-7.831496 -9.13824,-7.831496 z m -31.903528,24.21645 2.116784,-3.625889 -7.033056,-6.027345 -4.230899,1.814093 -1.494778,-3.846916 h -9.944977 l -1.494782,3.846916 -4.230898,-1.814093 -7.033055,6.027345 2.116789,3.625889 -4.49059,1.281031 v 2.695898 H 32.133408 V 22.910887 H 108.89464 V 60.502059 H 90.618145 v -2.695898 z m -2.330076,14.09516 -3.306364,2.833563 -3.951575,-1.693254 -0.790673,0.303623 c -0.226675,0.08642 -0.455128,0.164429 -0.691615,0.241673 l -0.809413,0.263094 -1.398401,3.596059 h -4.676212 l -1.398396,-3.596059 -0.809412,-0.263094 c -0.236492,-0.07724 -0.464946,-0.156778 -0.691621,-0.241673 l -0.790666,-0.303623 -3.951579,1.693254 -3.306366,-2.833563 1.975788,-3.38651 -0.354285,-0.677606 c -0.100843,-0.194259 -0.191867,-0.390043 -0.282,-0.592717 l -0.306988,-0.693666 -4.19431,-1.198433 V 60.063836 L 58.261283,58.8654 58.56827,58.171733 c 0.09013,-0.202671 0.182944,-0.398458 0.282,-0.592717 l 0.354285,-0.677608 -1.975786,-3.386508 3.306364,-2.833564 3.951578,1.693255 0.790671,-0.303623 c 0.22667,-0.08642 0.455124,-0.16443 0.691616,-0.241676 l 0.809413,-0.263089 1.398395,-3.594532 h 4.676212 l 1.398401,3.596063 0.809413,0.263089 c 0.236488,0.07724 0.464945,0.156783 0.691616,0.241674 l 0.790671,0.303623 3.951579,-1.693253 3.306364,2.833562 -1.975793,3.38651 0.354289,0.677607 c 0.100843,0.194258 0.191869,0.390045 0.282004,0.592716 l 0.306992,0.69367 4.194302,1.198429 v 4.007528 l -4.196096,1.198427 -0.306991,0.693671 c -0.09013,0.202669 -0.182939,0.398458 -0.281997,0.592717 L 81.82349,67.23531 Z M 108.89464,10.380495 v 9.397794 H 32.133408 V 10.380495 Z M 22.995166,35.441278 h 5.482945 V 63.634661 H 50.40989 v 2.695899 l 4.488805,1.281028 -2.116789,3.625894 7.033056,6.027345 4.230898,-1.814095 1.494784,3.846914 h 9.944976 l 1.494778,-3.846914 4.230896,1.814095 7.033056,-6.027345 -2.116784,-3.625894 4.490579,-1.281028 V 63.634661 H 112.54994 V 35.441278 h 5.48294 c 3.02259,0 5.48294,2.108539 5.48294,4.698898 V 82.43025 H 17.512222 V 40.140176 c 0,-2.590359 2.460364,-4.698898 5.482944,-4.698898 z M 90.618145,101.22583 H 50.40989 V 94.960633 H 90.618145 Z M 118.03288,91.828037 H 22.995166 c -3.02258,0 -5.482944,-2.108538 -5.482944,-4.69889 V 85.562846 H 123.51582 v 1.566301 c 0,2.590352 -2.46035,4.69889 -5.48294,4.69889 z m 0,0"
     id="path2"
     inkscape:connector-curvature="0"
     style="opacity:1;fill:#193264;fill-opacity:0.78431373;stroke-width:0.21149187" />
  <path
     d="m 35.788704,13.513093 h 3.655297 v 3.132598 h -3.655297 z m 0,0"
     id="path4"
     inkscape:connector-curvature="0"
     style="opacity:1;fill:#193264;fill-opacity:0.78431373;stroke-width:0.21149187" />
  <path
     d="m 43.099298,13.513093 h 3.655296 v 3.132598 h -3.655296 z m 0,0"
     id="path6"
     inkscape:connector-curvature="0"
     style="opacity:1;fill:#193264;fill-opacity:0.78431373;stroke-width:0.21149187" />
  <path
     d="m 50.40989,13.513093 h 3.655298 v 3.132598 H 50.40989 Z m 0,0"
     id="path8"
     inkscape:connector-curvature="0"
     style="opacity:1;fill:#193264;fill-opacity:0.78431373;stroke-width:0.21149187" />
  <path
     d="m 70.514023,54.236866 c -5.038529,0 -9.138242,3.513464 -9.138242,7.831494 0,4.31803 4.099713,7.831495 9.138242,7.831495 5.038524,0 9.138238,-3.513465 9.138238,-7.831495 0,-4.31803 -4.099714,-7.831494 -9.138238,-7.831494 z m 0,12.530392 c -3.022581,0 -5.482945,-2.108538 -5.482945,-4.698898 0,-2.59036 2.460364,-4.698896 5.482945,-4.698896 3.022582,0 5.482945,2.108536 5.482945,4.698896 0,2.59036 -2.460363,4.698898 -5.482945,4.698898 z m 0,0"
     id="path10"
     inkscape:connector-curvature="0"
     style="opacity:1;fill:#193264;fill-opacity:0.78431373;stroke-width:0.21149187" />
  <path
     d="M 35.788704,26.043484 H 72.34167 v 3.132598 H 35.788704 Z m 0,0"
     id="path12"
     inkscape:connector-curvature="0"
     style="opacity:1;fill:#193264;fill-opacity:0.78431373;stroke-width:0.21149187" />
  <path
     d="M 35.788704,32.30868 H 72.34167 v 3.132598 H 35.788704 Z m 0,0"
     id="path14"
     inkscape:connector-curvature="0"
     style="opacity:1;fill:#193264;fill-opacity:0.78431373;stroke-width:0.21149187" />
  <path
     d="M 35.788704,38.573877 H 72.34167 v 3.132598 H 35.788704 Z m 0,0"
     id="path16"
     inkscape:connector-curvature="0"
     style="opacity:1;fill:#193264;fill-opacity:0.78431373;stroke-width:0.21149187" />
  <g
     id="g4908"
     transform="matrix(0.17081047,0,0,0.14854518,132.80264,111.43293)"
     style="fill:#193264;fill-opacity:0.78431373">
    <g
       id="g4851"
       style="fill:#193264;fill-opacity:0.78431373">
      <g
         id="g4849"
         style="fill:#193264;fill-opacity:0.78431373">
        <path
           id="path4847"
           d="m 416,153.31542 c 3.156,-0.01 6.01,-1.875 7.288,-4.76 l 0.056,-0.128 31.936,-71.855991 c 0.466,-1.023 0.711,-2.132 0.72,-3.256 V -62.68456 c 0.053,-4.365 -3.442,-7.946999 -7.807,-7.999999 -0.064,-0.001 -0.129,-0.001 -0.193,0 H 304 c -3.047,-0.017 -5.838,1.698999 -7.2,4.423999 l -32,64 h 0.08 c -0.574,1.105 -0.875,2.33100052 -0.88,3.5760005 V 65.315432 H 216 V -62.68456 c 0.053,-4.365 -3.442,-7.946999 -7.807,-7.999999 -0.064,-0.001 -0.129,-0.001 -0.193,0 H 64 c -3.032,-0.001 -5.805,1.711999 -7.16,4.423999 l -32,64 h 0.08 C 24.332,-1.15856 24.017,0.06744052 24,1.3154405 V 145.31542 c 0,4.418 3.582,8 8,8 h 64 v 32 H 64 c -3.032,-10e-4 -5.805,1.712 -7.16,4.424 l -32,64 h 0.08 c -0.588,1.102 -0.903,2.328 -0.92,3.576 v 144 c 0,4.418 3.582,8 8,8 h 144 c 3.156,-0.01 6.01,-1.875 7.288,-4.76 l 0.056,-0.128 29.856,-67.112 H 264 v 64 c 0,4.418 3.582,8 8,8 h 144 c 3.156,-0.01 6.01,-1.875 7.288,-4.76 l 0.056,-0.128 31.936,-71.856 c 0.466,-1.023 0.711,-2.132 0.72,-3.256 v -136 c 0.053,-4.365 -3.442,-7.947 -7.807,-8 -0.064,-10e-4 -0.129,-10e-4 -0.193,0 H 352 V 166.32037 153.31542 Z M 440,71.619429 424,107.61942 V 3.2034405 L 440,-28.79656 Z M 308.944,-54.68456 h 126.112 l -24,48 H 284.944 Z M 184,65.315432 V 3.2034405 L 200,-28.79656 V 65.315432 Z M 195.688,81.315426 184,107.61942 V 81.315426 Z M 68.944,-54.68456 h 126.112 l -24,48 H 44.944 Z M 40,137.31542 V 9.3154405 H 168 V 65.315432 H 96 v 15.999994 h 72 v 55.999994 z m 28.944,64 H 96 v 48 H 44.944 Z m 99.056,192 H 40 v -128 h 56 v 72 h 16 v -72 h 56 z m 3.056,-144 H 112 v -48 h 83.056 z M 184,363.61942 v -26.304 h 11.688 z m 16,-42.304 h -16 v -62.112 l 16,-32 z m 64.8,-67.576 h 0.08 c -0.574,1.105 -0.875,2.331 -0.88,3.576 v 64 h -48 v -128 c 0.053,-4.365 -3.442,-7.947 -7.807,-8 -0.064,-10e-4 -0.129,-10e-4 -0.193,0 h -96 v -32 h 64 c 3.156,-0.01 6.01,-1.875 7.288,-4.76 l 0.056,-0.128 L 213.2,81.315426 H 264 v 63.999994 c 0,4.418 3.582,8 8,8 h 64 v 32 h -32 c -3.047,-0.017 -5.838,1.699 -7.2,4.424 z m 71.2,-52.424 v 48 h -51.056 l 24,-48 z m 72,192 H 280 v -56 h 72 v -16 h -72 v -56 h 128 z m 32,-65.696 -16,36 v -104.416 l 16,-32 z m -4.944,-126.304 -24,48 H 352 v -48 z M 336,65.315432 V 137.31542 H 280 V 9.3154405 H 408 V 137.31542 H 352 V 65.315432 Z"
           inkscape:connector-curvature="0"
           style="fill:#193264;fill-opacity:0.78431373"
           sodipodi:nodetypes="cccccccccccccccccccccccsscccccccsscccccssccccccccccccccccccccccccccccccccccccccccccccccccccccccccccccccccccccccccccccccccccccccccsscccccccccccccccccccccccccccccccccccccc" />
        <path
           style="fill:none;fill-opacity:0.78431373;stroke:#193264;stroke-width:14.12524414;stroke-linecap:butt;stroke-linejoin:miter;stroke-miterlimit:4;stroke-dasharray:28.25048905, 14.12524452;stroke-dashoffset:4.23757315;stroke-opacity:0.78431373"
           d="m -376.55791,54.220872 2.55369,156.486758 268.14268,-2.65231"
           id="path6221"
           inkscape:connector-curvature="0" />
        <path
           style="fill:none;fill-opacity:0.78431373;stroke:#193264;stroke-width:14.12524414;stroke-linecap:butt;stroke-linejoin:miter;stroke-miterlimit:4;stroke-dasharray:28.25048905, 14.12524452;stroke-dashoffset:4.23757315;stroke-opacity:0.78431373"
           d="M 572.11063,203.08676 845.86302,202.48733 845.30081,43.82581"
           id="path6221-7"
           inkscape:connector-curvature="0" />
      </g>
    </g>
    <g
       id="g4853"
       style="fill:#193264;fill-opacity:0.78431373" />
    <g
       id="g4855"
       style="fill:#193264;fill-opacity:0.78431373" />
    <g
       id="g4857"
       style="fill:#193264;fill-opacity:0.78431373" />
    <g
       id="g4859"
       style="fill:#193264;fill-opacity:0.78431373" />
    <g
       id="g4861"
       style="fill:#193264;fill-opacity:0.78431373" />
    <g
       id="g4863"
       style="fill:#193264;fill-opacity:0.78431373" />
    <g
       id="g4865"
       style="fill:#193264;fill-opacity:0.78431373" />
    <g
       id="g4867"
       style="fill:#193264;fill-opacity:0.78431373" />
    <g
       id="g4869"
       style="fill:#193264;fill-opacity:0.78431373" />
    <g
       id="g4871"
       style="fill:#193264;fill-opacity:0.78431373" />
    <g
       id="g4873"
       style="fill:#193264;fill-opacity:0.78431373" />
    <g
       id="g4875"
       style="fill:#193264;fill-opacity:0.78431373" />
    <g
       id="g4877"
       style="fill:#193264;fill-opacity:0.78431373" />
    <g
       id="g4879"
       style="fill:#193264;fill-opacity:0.78431373" />
    <g
       id="g4881"
       style="fill:#193264;fill-opacity:0.78431373" />
  </g>
  <g
     id="g5803"
     transform="matrix(0.33140536,0,0,0.28493335,285.78703,172.65541)">
    <g
       id="g5721" />
    <g
       id="g5723" />
    <g
       id="g5725" />
    <g
       id="g5727" />
    <g
       id="g5729" />
    <g
       id="g5731" />
    <g
       id="g5733" />
    <g
       id="g5735" />
    <g
       id="g5737" />
    <g
       id="g5739" />
    <g
       id="g5741" />
    <g
       id="g5743" />
    <g
       id="g5745" />
    <g
       id="g5747" />
    <g
       id="g5749" />
    <g
       id="g6010"
       transform="matrix(0.23955628,0,0,0.24322609,-76.812729,-336.99731)"
       style="fill:#193264;fill-opacity:0.78431373">
      <g
         id="g5951"
         style="fill:#193264;fill-opacity:0.78431373">
        <g
           id="g5949"
           style="fill:#193264;fill-opacity:0.78431373">
          <g
             id="g5947"
             style="fill:#193264;fill-opacity:0.78431373">
            <path
               id="path5943"
               d="m 248,72 c -57.344,0 -104,46.656 -104,104 0,57.344 46.656,104 104,104 57.344,0 104,-46.656 104,-104 C 352,118.656 305.344,72 248,72 Z m 0,192 c -48.52,0 -88,-39.48 -88,-88 0,-48.52 39.48,-88 88,-88 48.52,0 88,39.48 88,88 0,48.52 -39.48,88 -88,88 z"
               inkscape:connector-curvature="0"
               style="fill:#193264;fill-opacity:0.78431373" />
            <path
               id="path5945"
               d="M 424,176 C 424,149.256 405.138,126.836 380.025,121.315 393.877,99.653 391.363,70.466 372.456,51.552 353.534,32.644 324.348,30.124 302.687,43.984 297.169,18.867 274.747,0 248,0 221.253,0 198.831,18.866 193.313,43.982 171.656,30.122 142.466,32.637 123.544,51.552 104.63,70.466 102.115,99.653 115.973,121.315 90.861,126.837 72,149.257 72,176 c 0,26.747 18.866,49.169 43.983,54.687 -13.86,21.659 -11.346,50.854 7.569,69.769 7.875,7.869 17.529,12.889 27.68,15.086 L 118.416,496 h 28.248 l 28.584,-21.44 21.44,21.44 h 26.088 l 24.003,-144.031 c 0.407,0.009 0.811,0.031 1.221,0.031 0.41,0 0.814,-0.022 1.221,-0.031 L 273.224,496 h 26.088 l 21.44,-21.44 28.584,21.44 h 28.248 L 344.768,315.542 c 10.15,-2.197 19.804,-7.217 27.68,-15.086 18.916,-18.916 21.43,-48.106 7.568,-69.769 C 405.133,225.169 424,202.747 424,176 Z M 248,296 c -66.168,0 -120,-53.832 -120,-120 0,-66.168 53.832,-120 120,-120 66.168,0 120,53.832 120,120 0,66.168 -53.832,120 -120,120 z M 361.144,62.864 c 13.056,13.063 15.172,32.977 6.363,48.265 -12.557,-23.041 -31.584,-42.07 -54.624,-54.63 15.289,-8.807 35.206,-6.69 48.261,6.365 z M 248,16 c 18.457,0 34.026,12.569 38.619,29.594 C 274.371,41.961 261.411,40 248,40 234.589,40 221.629,41.961 209.381,45.594 213.974,28.569 229.543,16 248,16 Z M 134.856,62.864 c 13.055,-13.055 32.972,-15.172 48.262,-6.365 -23.04,12.559 -42.067,31.588 -54.624,54.63 -8.81,-15.288 -6.694,-35.202 6.362,-48.265 z M 88,176 c 0,-18.457 12.569,-34.026 29.594,-38.619 C 113.961,149.629 112,162.589 112,176 c 0,13.411 1.961,26.371 5.594,38.619 C 100.569,210.026 88,194.457 88,176 Z m 40.499,64.882 c 12.559,23.04 31.588,42.067 54.629,54.625 -15.289,8.809 -35.209,6.693 -48.265,-6.363 -13.054,-13.062 -15.171,-32.975 -6.364,-48.262 z M 209.224,480 h -5.912 L 176.752,453.44 141.336,480 h -3.752 l 29.692,-163.335 c 9.108,-0.668 18.08,-3.546 26.039,-8.638 4.299,19.549 18.835,35.304 37.686,41.326 z m 0.157,-173.594 C 221.629,310.039 234.589,312 248,312 c 13.411,0 26.371,-1.961 38.619,-5.594 C 282.026,323.431 266.457,336 248,336 229.543,336 213.974,323.431 209.381,306.406 Z M 354.664,480 319.248,453.44 292.688,480 h -5.912 L 264.999,349.353 c 18.85,-6.022 33.387,-21.777 37.686,-41.325 7.958,5.091 16.928,7.97 26.039,8.637 L 358.416,480 Z m 6.472,-190.856 c -13.056,13.056 -32.975,15.172 -48.265,6.363 23.041,-12.557 42.07,-31.584 54.629,-54.625 8.808,15.287 6.691,35.2 -6.364,48.262 z m 17.27,-74.525 C 382.039,202.371 384,189.411 384,176 384,162.589 382.039,149.629 378.406,137.381 395.431,141.974 408,157.543 408,176 c 0,18.457 -12.569,34.026 -29.594,38.619 z"
               inkscape:connector-curvature="0"
               style="fill:#193264;fill-opacity:0.78431373" />
          </g>
        </g>
      </g>
      <g
         id="g5953"
         style="fill:#193264;fill-opacity:0.78431373" />
      <g
         id="g5955"
         style="fill:#193264;fill-opacity:0.78431373" />
      <g
         id="g5957"
         style="fill:#193264;fill-opacity:0.78431373" />
      <g
         id="g5959"
         style="fill:#193264;fill-opacity:0.78431373" />
      <g
         id="g5961"
         style="fill:#193264;fill-opacity:0.78431373" />
      <g
         id="g5963"
         style="fill:#193264;fill-opacity:0.78431373" />
      <g
         id="g5965"
         style="fill:#193264;fill-opacity:0.78431373" />
      <g
         id="g5967"
         style="fill:#193264;fill-opacity:0.78431373" />
      <g
         id="g5969"
         style="fill:#193264;fill-opacity:0.78431373" />
      <g
         id="g5971"
         style="fill:#193264;fill-opacity:0.78431373" />
      <g
         id="g5973"
         style="fill:#193264;fill-opacity:0.78431373" />
      <g
         id="g5975"
         style="fill:#193264;fill-opacity:0.78431373" />
      <g
         id="g5977"
         style="fill:#193264;fill-opacity:0.78431373" />
      <g
         id="g5979"
         style="fill:#193264;fill-opacity:0.78431373" />
      <g
         id="g5981"
         style="fill:#193264;fill-opacity:0.78431373" />
    </g>
    <g
       id="g6219"
       transform="matrix(0.52856348,0,0,0.60084954,-54.8428,-562.9307)"
       style="fill:#193264;fill-opacity:0.78431373">
      <g
         id="g6149"
         style="fill:#193264;fill-opacity:0.78431373">
        <g
           id="g6147"
           style="fill:#193264;fill-opacity:0.78431373">
          <g
             id="g6145"
             style="fill:#193264;fill-opacity:0.78431373">
            <rect
               id="rect6119"
               height="16"
               width="16"
               y="96"
               x="288"
               style="fill:#193264;fill-opacity:0.78431373" />
            <path
               id="path6121"
               d="m 16,16 h 216 v 64 h 56 8 8 V 68.992 L 243.632,0 H 0 V 368 H 176 V 352 H 16 Z M 248,29.296 278.368,64 H 248 Z"
               inkscape:connector-curvature="0"
               style="fill:#193264;fill-opacity:0.78431373" />
            <path
               id="path6123"
               d="m 488,208 h 8 V 196.992 L 435.632,128 H 192 V 496 H 496 V 224 H 480 V 480 H 208 V 144 h 216 v 64 h 56 z M 440,192 V 157.296 L 470.368,192 Z"
               inkscape:connector-curvature="0"
               style="fill:#193264;fill-opacity:0.78431373" />
            <path
               id="path6125"
               d="m 312,432 c 48.52,0 88,-39.48 88,-88 0,-48.52 -39.48,-88 -88,-88 -48.52,0 -88,39.48 -88,88 0,48.52 39.48,88 88,88 z m 8,-159.528 c 35.944,3.992 64,34.528 64,71.528 0,11.144 -2.616,21.664 -7.16,31.096 L 320,339.56 Z m -16,0 v 75.968 l 64.368,40.224 C 355.168,405.288 334.832,416 312,416 c -39.704,0 -72,-32.296 -72,-72 0,-37 28.056,-67.536 64,-71.528 z"
               inkscape:connector-curvature="0"
               style="fill:#193264;fill-opacity:0.78431373" />
            <polygon
               id="polygon6127"
               points="411.312,240 464,240 464,224 404.688,224 378.344,250.344 389.656,261.656 "
               style="fill:#193264;fill-opacity:0.78431373" />
            <rect
               id="rect6129"
               height="16"
               width="48"
               y="256"
               x="416"
               style="fill:#193264;fill-opacity:0.78431373" />
            <polygon
               id="polygon6131"
               points="378.344,437.656 404.688,464 464,464 464,448 411.312,448 389.656,426.344 "
               style="fill:#193264;fill-opacity:0.78431373" />
            <rect
               id="rect6133"
               height="16"
               width="48"
               y="416"
               x="416"
               style="fill:#193264;fill-opacity:0.78431373" />
            <rect
               id="rect6135"
               height="16"
               width="80"
               y="160"
               x="224"
               style="fill:#193264;fill-opacity:0.78431373" />
            <rect
               id="rect6137"
               height="16"
               width="16"
               y="192"
               x="288"
               style="fill:#193264;fill-opacity:0.78431373" />
            <rect
               id="rect6139"
               height="16"
               width="48"
               y="192"
               x="224"
               style="fill:#193264;fill-opacity:0.78431373" />
            <path
               id="path6141"
               d="M 160,88 H 112 V 232 H 96 V 120 H 48 V 232 H 32 v 16 H 176 V 232 H 160 Z M 80,232 H 64 v -96 h 16 z m 64,0 H 128 V 104 h 16 z"
               inkscape:connector-curvature="0"
               style="fill:#193264;fill-opacity:0.78431373" />
            <rect
               id="rect6143"
               height="16"
               width="144"
               y="264"
               x="32"
               style="fill:#193264;fill-opacity:0.78431373" />
          </g>
        </g>
      </g>
      <g
         id="g6151"
         style="fill:#193264;fill-opacity:0.78431373" />
      <g
         id="g6153"
         style="fill:#193264;fill-opacity:0.78431373" />
      <g
         id="g6155"
         style="fill:#193264;fill-opacity:0.78431373" />
      <g
         id="g6157"
         style="fill:#193264;fill-opacity:0.78431373" />
      <g
         id="g6159"
         style="fill:#193264;fill-opacity:0.78431373" />
      <g
         id="g6161"
         style="fill:#193264;fill-opacity:0.78431373" />
      <g
         id="g6163"
         style="fill:#193264;fill-opacity:0.78431373" />
      <g
         id="g6165"
         style="fill:#193264;fill-opacity:0.78431373" />
      <g
         id="g6167"
         style="fill:#193264;fill-opacity:0.78431373" />
      <g
         id="g6169"
         style="fill:#193264;fill-opacity:0.78431373" />
      <g
         id="g6171"
         style="fill:#193264;fill-opacity:0.78431373" />
      <g
         id="g6173"
         style="fill:#193264;fill-opacity:0.78431373" />
      <g
         id="g6175"
         style="fill:#193264;fill-opacity:0.78431373" />
      <g
         id="g6177"
         style="fill:#193264;fill-opacity:0.78431373" />
      <g
         id="g6179"
         style="fill:#193264;fill-opacity:0.78431373" />
    </g>
  </g>
</svg>
