<?xml version="1.0" encoding="UTF-8" standalone="no"?>
<!-- Generator: Adobe Illustrator 19.0.0, SVG Export Plug-In . SVG Version: 6.00 Build 0)  -->

<svg
   xmlns:dc="http://purl.org/dc/elements/1.1/"
   xmlns:cc="http://creativecommons.org/ns#"
   xmlns:rdf="http://www.w3.org/1999/02/22-rdf-syntax-ns#"
   xmlns:svg="http://www.w3.org/2000/svg"
   xmlns="http://www.w3.org/2000/svg"
   xmlns:sodipodi="http://sodipodi.sourceforge.net/DTD/sodipodi-0.dtd"
   xmlns:inkscape="http://www.inkscape.org/namespaces/inkscape"
   version="1.1"
   id="Capa_1"
   x="0px"
   y="0px"
   viewBox="0 0 500 250"
   xml:space="preserve"
   sodipodi:docname="datatemplate.svg"
   inkscape:version="0.92.2 5c3e80d, 2017-08-06"
   width="500"
   height="250"><metadata
     id="metadata39"><rdf:RDF><cc:Work
         rdf:about=""><dc:format>image/svg+xml</dc:format><dc:type
           rdf:resource="http://purl.org/dc/dcmitype/StillImage" /><dc:title></dc:title></cc:Work></rdf:RDF></metadata><defs
     id="defs37" /><sodipodi:namedview
     pagecolor="#ffffff"
     bordercolor="#666666"
     borderopacity="1"
     objecttolerance="10"
     gridtolerance="10"
     guidetolerance="10"
     inkscape:pageopacity="0"
     inkscape:pageshadow="2"
     inkscape:window-width="1331"
     inkscape:window-height="649"
     id="namedview35"
     showgrid="false"
     inkscape:zoom="1.01"
     inkscape:cx="193.08672"
     inkscape:cy="75.071865"
     inkscape:window-x="14"
     inkscape:window-y="20"
     inkscape:window-maximized="0"
     inkscape:current-layer="Capa_1"
     units="px" /><path
     d="m 116.16188,21.666581 c -34.10108,0 -62.905499,9.541335 -72.737351,23.871785 C 23.406086,51.444544 11.831107,61.391419 9.5742154,71.474718 9.3173335,72.016681 9.1277302,72.610242 9.1277302,73.281232 v 1.843377 42.397761 1.84338 1.84337 40.55439 1.84337 1.84339 44.24113 c 0,0.59726 0.1314997,1.16136 0.3578,1.66276 3.6116388,18.04667 35.9237188,31.51811 76.0951638,31.51811 34.373246,0 62.933016,-9.88051 72.740406,-24.03031 19.44658,-5.69972 31.70046,-15.02724 33.91454,-25.80732 0.24159,-0.52353 0.3792,-1.13186 0.3792,-1.77702 v -44.24114 -1.84338 -42.39776 -1.8434 -44.241143 c 0,-16.977511 -26.79523,-35.024216 -76.45296,-35.024216 z m 39.15921,145.066689 c -0.12233,0.36498 -0.27217,0.73 -0.43731,1.09497 -0.2049,0.45347 -0.43426,0.90694 -0.70643,1.36041 -0.20183,0.34287 -0.43119,0.68205 -0.66972,1.02123 -0.33946,0.48297 -0.70032,0.96594 -1.1101,1.4452 -0.24771,0.29135 -0.51988,0.57883 -0.79511,0.87008 -0.50154,0.52724 -1.02447,1.05073 -1.60858,1.57056 -0.25076,0.22495 -0.51987,0.44244 -0.78593,0.66363 -0.69114,0.57513 -1.41285,1.14659 -2.2049,1.70698 -0.20796,0.15128 -0.43119,0.29498 -0.64832,0.44241 -0.91132,0.61935 -1.8624,1.23505 -2.88992,1.83231 -0.13151,0.0773 -0.26913,0.15128 -0.40368,0.22495 -1.1468,0.65255 -2.34557,1.29405 -3.62692,1.91343 -0.0367,0.0182 -0.0734,0.0331 -0.11005,0.0515 -6.94498,3.34389 -15.82882,6.15689 -26.18055,8.00027 -0.052,0.006 -0.10403,0.0152 -0.15596,0.0243 -2.01224,0.35761 -4.07647,0.67468 -6.19575,0.95486 -0.34556,0.0443 -0.70948,0.0736 -1.05811,0.11794 -1.85016,0.23221 -3.72173,0.4461 -5.64834,0.61568 -0.880742,0.0773 -1.804291,0.1143 -2.700324,0.18069 -1.44954,0.10307 -2.883804,0.21767 -4.370049,0.28012 -2.428146,0.0922 -4.905222,0.15128 -7.434286,0.15128 -2.529064,0 -5.00614,-0.0591 -7.437345,-0.16219 -1.486245,-0.0627 -2.920503,-0.18068 -4.370051,-0.28012 -0.896028,-0.0627 -1.81958,-0.10308 -2.700318,-0.18069 -1.926616,-0.16946 -3.798184,-0.38344 -5.648346,-0.61568 -0.348625,-0.0443 -0.712541,-0.0736 -1.058108,-0.11794 -2.119277,-0.28012 -4.183507,-0.60096 -6.195748,-0.95487 -0.05198,-0.006 -0.103979,-0.0152 -0.155965,-0.0243 -10.351731,-1.84335 -19.235565,-4.65636 -26.180552,-8.00024 -0.0367,-0.0152 -0.07339,-0.0331 -0.110088,-0.0515 -1.281351,-0.61936 -2.483191,-1.26085 -3.626928,-1.91344 -0.131499,-0.0773 -0.272173,-0.15127 -0.403671,-0.22494 -1.027529,-0.59727 -1.978603,-1.20926 -2.889922,-1.83232 -0.214069,-0.14734 -0.440369,-0.29133 -0.648322,-0.44241 -0.792052,-0.56038 -1.513768,-1.13185 -2.204904,-1.70697 -0.262998,-0.22131 -0.53517,-0.43871 -0.785936,-0.66363 -0.5841,-0.52001 -1.107039,-1.04351 -1.60857,-1.57071 -0.272172,-0.28771 -0.547403,-0.57517 -0.795111,-0.87011 -0.409787,-0.47927 -0.770646,-0.95854 -1.110097,-1.44521 -0.238533,-0.33918 -0.467892,-0.67836 -0.669728,-1.02123 -0.269114,-0.45347 -0.498473,-0.90693 -0.706425,-1.36041 -0.165138,-0.36497 -0.311928,-0.72998 -0.437312,-1.09496 -0.149847,-0.4461 -0.269113,-0.8922 -0.354741,-1.33831 -0.113147,-0.5862 -0.238533,-1.18342 -0.238533,-1.77702 0,-0.4166 0.03976,-0.83318 0.0948,-1.24611 0.07645,-0.5567 0.03364,-1.11339 -0.0948,-1.6406 v -27.37052 c 0.08563,0.0958 0.192661,0.18796 0.281346,0.28376 0.666671,0.70786 1.345572,1.41201 2.110103,2.0904 11.519932,10.50357 34.556739,18.66607 67.945277,18.66607 33.247864,0 56.226574,-8.09614 67.795434,-18.53705 0.92356,-0.81107 1.75536,-1.64799 2.53824,-2.49963 l 0.003,-0.003 v 27.37052 c -0.12844,0.5272 -0.17126,1.0839 -0.0947,1.64059 0.0551,0.41294 0.0947,0.82951 0.0947,1.24612 0,0.59359 -0.12538,1.19082 -0.24159,1.78809 -0.0887,0.4461 -0.2049,0.8922 -0.35474,1.3383 z M 17.081897,90.966627 c 0.917435,0.870076 1.908266,1.729087 2.981665,2.565996 0.223243,0.173409 0.474008,0.342876 0.706426,0.516134 0.899087,0.674688 1.850162,1.334611 2.850167,1.983499 0.370031,0.239503 0.740064,0.475568 1.122329,0.711522 1.116213,0.685753 2.287472,1.353043 3.519894,1.998233 0.201836,0.107012 0.385323,0.217371 0.590217,0.320747 1.434258,0.733649 2.957201,1.434172 4.541306,2.112532 0.437311,0.18795 0.896029,0.36497 1.345573,0.54932 1.259944,0.51247 2.562703,1.00281 3.911333,1.47837 0.486241,0.16947 0.963307,0.34658 1.46178,0.5088 1.789,0.59723 3.636103,1.16499 5.57495,1.68852 0.266057,0.0736 0.55352,0.13279 0.822634,0.20282 1.709488,0.44977 3.483198,0.86638 5.305837,1.25718 0.617739,0.13279 1.244654,0.25799 1.874626,0.38344 1.733953,0.34285 3.519894,0.65623 5.351708,0.94381 0.470949,0.0736 0.920493,0.15855 1.397559,0.22859 2.275241,0.3318 4.629992,0.61568 7.048964,0.859 0.596333,0.0592 1.217131,0.10308 1.822639,0.15492 1.935788,0.16947 3.914391,0.30968 5.938866,0.42028 0.737006,0.0407 1.470955,0.0809 2.223252,0.11428 2.639156,0.10702 5.324184,0.18432 8.107072,0.18432 2.782888,0 5.467916,-0.0773 8.104014,-0.18432 0.749245,-0.0331 1.483184,-0.0736 2.223254,-0.11428 2.024468,-0.11066 4.003072,-0.25073 5.938858,-0.42028 0.60552,-0.0551 1.22326,-0.0958 1.82264,-0.15492 2.41898,-0.2398 4.77373,-0.5272 7.04897,-0.859 0.47706,-0.07 0.92661,-0.15492 1.39756,-0.22859 1.83181,-0.2877 3.6147,-0.60096 5.35171,-0.94381 0.62997,-0.12551 1.25689,-0.25071 1.87462,-0.38344 1.82264,-0.3908 3.59635,-0.80741 5.30584,-1.25718 0.26911,-0.07 0.55658,-0.13279 0.82263,-0.20282 1.93885,-0.52353 3.78596,-1.09495 5.57495,-1.68852 0.49848,-0.16583 0.97555,-0.3392 1.46178,-0.5088 1.34863,-0.47556 2.65139,-0.9659 3.91133,-1.47837 0.44956,-0.18432 0.90827,-0.36131 1.34558,-0.54932 1.5841,-0.67836 3.11011,-1.378883 4.5413,-2.112532 0.2049,-0.103376 0.38839,-0.213735 0.59023,-0.320747 1.23241,-0.648857 2.40367,-1.31248 3.51988,-1.998233 0.38227,-0.235864 0.75536,-0.471899 1.12234,-0.711522 1,-0.64519 1.95108,-1.305113 2.85016,-1.983499 0.23242,-0.173409 0.48319,-0.342877 0.70643,-0.516134 1.07339,-0.836909 2.06423,-1.692221 2.98167,-2.565996 0.22935,-0.221308 0.43425,-0.442404 0.65749,-0.663622 0.39755,-0.398143 0.81651,-0.792648 1.18349,-1.19449 v 27.370525 c -0.12844,0.52719 -0.17126,1.08389 -0.0947,1.64059 0.0551,0.41291 0.0947,0.82951 0.0947,1.24612 0,0.59359 -0.12538,1.19082 -0.24159,1.78808 -0.0857,0.4461 -0.2049,0.88851 -0.35474,1.33831 -0.12233,0.36497 -0.27217,0.72998 -0.43731,1.09496 -0.2049,0.45347 -0.43426,0.90694 -0.70643,1.36041 -0.20183,0.34288 -0.43119,0.68205 -0.66972,1.02123 -0.33946,0.48297 -0.70032,0.96594 -1.1101,1.44521 -0.24771,0.29133 -0.51988,0.57883 -0.79511,0.87007 -0.50154,0.52723 -1.02447,1.05073 -1.60858,1.57057 -0.25076,0.22494 -0.51987,0.4424 -0.78593,0.66362 -0.69114,0.57513 -1.41285,1.14659 -2.2049,1.70698 -0.20796,0.15128 -0.43119,0.29498 -0.64832,0.44241 -0.91132,0.61936 -1.8624,1.23505 -2.88992,1.83231 -0.13151,0.0773 -0.26913,0.15128 -0.40368,0.22495 -1.1468,0.65256 -2.34557,1.29404 -3.62692,1.91344 -0.0367,0.0182 -0.0734,0.0331 -0.11005,0.0516 -6.94498,3.34387 -15.82882,6.15689 -26.18055,8.00026 -0.052,0.006 -0.10403,0.0152 -0.15596,0.0243 -2.01224,0.35761 -4.07647,0.67469 -6.19575,0.95487 -0.34556,0.0443 -0.70948,0.0736 -1.05811,0.11793 -1.85016,0.23222 -3.72173,0.4461 -5.64834,0.61569 -0.880742,0.0773 -1.804291,0.11429 -2.700324,0.18068 -1.44954,0.10308 -2.883804,0.21738 -4.370049,0.28013 -2.428146,0.0921 -4.905222,0.15128 -7.434286,0.15128 -2.529064,0 -5.00614,-0.0592 -7.437345,-0.16219 -1.486245,-0.0627 -2.920503,-0.18069 -4.370051,-0.28013 -0.896028,-0.0627 -1.81958,-0.10307 -2.700318,-0.18068 -1.926616,-0.16948 -3.798184,-0.38344 -5.648346,-0.6157 -0.348625,-0.0443 -0.712541,-0.0736 -1.058108,-0.11793 -2.119277,-0.28011 -4.183507,-0.60095 -6.195748,-0.95487 -0.05198,-0.006 -0.103979,-0.0152 -0.155965,-0.0243 -10.351731,-1.84338 -19.235565,-4.65639 -26.180552,-8.00027 -0.0367,-0.0152 -0.07339,-0.0331 -0.110088,-0.0515 -1.281351,-0.61937 -2.483191,-1.26089 -3.626928,-1.91344 -0.131499,-0.0773 -0.272173,-0.15129 -0.403671,-0.22495 -1.027529,-0.59726 -1.978603,-1.20925 -2.889922,-1.83231 -0.214069,-0.14734 -0.440369,-0.29135 -0.648322,-0.44241 -0.792052,-0.5604 -1.513768,-1.13185 -2.204904,-1.70699 -0.262998,-0.22131 -0.53517,-0.4387 -0.785936,-0.66362 -0.5841,-0.51998 -1.107039,-1.04348 -1.60857,-1.57069 -0.272172,-0.28769 -0.547403,-0.57515 -0.795111,-0.8701 -0.409787,-0.47926 -0.770646,-0.95853 -1.110097,-1.4452 -0.238533,-0.33918 -0.467892,-0.67836 -0.669728,-1.02124 -0.269114,-0.45346 -0.498473,-0.90694 -0.706425,-1.3604 -0.165138,-0.36498 -0.311928,-0.72999 -0.437312,-1.09497 -0.149847,-0.4461 -0.269113,-0.89221 -0.354741,-1.33831 -0.113147,-0.58619 -0.238533,-1.18342 -0.238533,-1.77701 0,-0.41661 0.03976,-0.83321 0.0948,-1.24612 0.07645,-0.5567 0.03364,-1.1134 -0.0948,-1.64059 V 89.108515 c 0.366974,0.401842 0.785936,0.796347 1.183492,1.19449 0.220184,0.221309 0.425079,0.442435 0.654437,0.663622 z M 162.03366,165.78207 v -0.3318 -1.84339 -1.84337 -32.54672 c 0.1315,-0.0443 0.25382,-0.0921 0.38532,-0.13642 1.22325,-0.41294 2.41592,-0.83691 3.57188,-1.27562 0.0122,-0.003 0.0275,-0.0121 0.0398,-0.0152 9.05509,-3.45084 15.96338,-7.73852 20.46798,-12.63456 v 30.01763 c 0,0.42765 -0.0459,0.85532 -0.10698,1.28666 -0.049,0.35394 -0.13149,0.70788 -0.22018,1.0618 -0.0275,0.10307 -0.0459,0.20645 -0.0765,0.31337 -0.11004,0.38712 -0.24771,0.77422 -0.40674,1.16133 -0.0184,0.0479 -0.0398,0.0958 -0.0581,0.1437 -2.53212,5.95413 -10.59638,11.80501 -22.23253,16.14433 -0.44954,0.16583 -0.90214,0.33551 -1.36392,0.49773 z M 186.4986,70.87379 v 30.05815 c 0,0.42767 -0.0459,0.85534 -0.10698,1.28667 -0.049,0.35395 -0.1315,0.70789 -0.22019,1.0618 -0.0275,0.10308 -0.0459,0.20645 -0.0765,0.31339 -0.11005,0.3871 -0.24772,0.77421 -0.40674,1.16131 -0.0184,0.0479 -0.0398,0.0958 -0.0581,0.1437 -2.53211,5.95414 -10.59637,11.80502 -22.23252,16.14433 -0.44954,0.16583 -0.90214,0.33552 -1.36392,0.49774 v -0.33185 -1.84337 -1.84338 -32.546715 c 0.25688,-0.08488 0.49236,-0.180685 0.74619,-0.265571 0.70336,-0.2398 1.38838,-0.490334 2.07034,-0.737351 0.57799,-0.210092 1.15597,-0.424003 1.71561,-0.641521 0.69725,-0.272847 1.37004,-0.552999 2.03976,-0.83688 0.50765,-0.21373 1.02141,-0.423972 1.51377,-0.641492 0.70642,-0.313378 1.38227,-0.641491 2.05811,-0.965934 0.41897,-0.202816 0.85322,-0.398174 1.25995,-0.604628 0.78288,-0.398173 1.52906,-0.807412 2.26912,-1.224018 0.26606,-0.147336 0.54741,-0.291338 0.80429,-0.438706 0.99083,-0.575159 1.94191,-1.165022 2.84711,-1.76598 0.0949,-0.06275 0.17431,-0.129148 0.26911,-0.191599 0.79817,-0.538265 1.56882,-1.087595 2.29665,-1.647959 0.25688,-0.199178 0.48623,-0.401873 0.73395,-0.600959 0.53823,-0.43134 1.07034,-0.866378 1.56576,-1.312481 0.27217,-0.24344 0.51681,-0.494034 0.77369,-0.74105 0.43121,-0.412907 0.8624,-0.825814 1.2569,-1.246118 0.0796,-0.08488 0.17125,-0.158554 0.24464,-0.239499 z M 116.16188,29.040093 c 41.4528,0 70.33672,14.570101 70.33672,27.650704 0,0.490365 -0.0428,0.9807 -0.12231,1.471035 -0.0245,0.162192 -0.0765,0.320746 -0.11005,0.482967 -0.0704,0.331811 -0.13761,0.659924 -0.24159,0.991735 -0.0612,0.191599 -0.14372,0.383409 -0.21407,0.575129 -0.1131,0.298615 -0.22323,0.59726 -0.36391,0.895875 -0.0949,0.202816 -0.20795,0.40554 -0.31498,0.608326 -0.15292,0.287701 -0.30582,0.575129 -0.48013,0.859009 -0.12845,0.206455 -0.27217,0.412938 -0.41284,0.615693 -0.19266,0.280122 -0.38839,0.560395 -0.60246,0.836909 -0.15902,0.206455 -0.33027,0.412908 -0.50152,0.619361 -0.22937,0.272847 -0.4679,0.54933 -0.72172,0.822146 -0.1896,0.202815 -0.38532,0.409239 -0.58716,0.611994 -0.26912,0.269208 -0.55046,0.538295 -0.84099,0.807412 -0.21713,0.199178 -0.4373,0.401872 -0.66667,0.600959 -0.30886,0.269207 -0.63609,0.534566 -0.96636,0.800014 -0.24159,0.195237 -0.48319,0.387108 -0.73701,0.582497 -0.35474,0.269208 -0.72477,0.534596 -1.10092,0.796346 -0.25994,0.184323 -0.51682,0.368676 -0.78899,0.54933 -0.40368,0.269208 -0.83181,0.538264 -1.25994,0.807412 -0.27219,0.169468 -0.53518,0.342877 -0.81653,0.508767 -0.46788,0.280122 -0.9633,0.552999 -1.45566,0.829513 -0.26912,0.147336 -0.52294,0.298615 -0.79817,0.446103 -0.65138,0.346545 -1.32723,0.689422 -2.0153,1.024931 -0.13761,0.06639 -0.263,0.136423 -0.40062,0.202816 -0.83791,0.401841 -1.70642,0.796347 -2.59939,1.183455 -0.24772,0.107016 -0.51377,0.210091 -0.76454,0.313348 -0.65443,0.272846 -1.30886,0.545661 -1.99083,0.811111 -0.35474,0.140061 -0.72783,0.269208 -1.09175,0.40554 -0.49236,0.184322 -0.98471,0.364976 -1.4893,0.541932 V 75.12467 73.281293 c 0,-0.416607 -0.0826,-0.811112 -0.19878,-1.187154 -0.0428,-0.147337 -0.0826,-0.287701 -0.14067,-0.423973 -0.006,-0.01516 -0.009,-0.03699 -0.0184,-0.05154 -0.86851,-4.339313 -3.43121,-8.402142 -7.32725,-12.088899 -0.0214,-0.02122 -0.0398,-0.04426 -0.0643,-0.06275 -0.55658,-0.527199 -1.17738,-1.032269 -1.789,-1.541065 -10.84715,-9.257454 -30.81055,-16.513007 -59.128721,-17.644833 -2.56576,-0.114292 -5.162103,-0.180685 -7.795144,-0.180685 -2.611632,0 -5.207976,0.06275 -7.782911,0.177047 C 70.158613,40.583449 63.15858,41.350267 56.745706,42.46736 68.592845,34.983257 89.47368,29.040184 116.16188,29.040184 Z M 50.390924,51.385548 c 0.770646,-0.184323 1.565757,-0.346544 2.351693,-0.519832 1.015295,-0.224946 2.036707,-0.442404 3.085642,-0.64516 0.914377,-0.177046 1.837929,-0.342877 2.767597,-0.505098 1.030586,-0.177047 2.082579,-0.342877 3.143746,-0.5014 0.899087,-0.136423 1.795116,-0.276484 2.706435,-0.394475 1.831813,-0.239801 3.697265,-0.449802 5.605531,-0.626758 0.724775,-0.07003 1.461781,-0.114292 2.192671,-0.173409 1.48013,-0.11793 2.972491,-0.221308 4.495435,-0.298615 0.718658,-0.03699 1.437315,-0.07367 2.16209,-0.103378 2.195729,-0.08095 4.409806,-0.143699 6.67893,-0.143699 2.529065,0 5.00614,0.05912 7.440403,0.162192 1.4679,0.06275 2.883805,0.177047 4.315009,0.276484 0.917429,0.06275 1.856277,0.107016 2.758414,0.184323 1.8991,0.16583 3.74315,0.37974 5.56884,0.604627 0.37614,0.04426 0.77064,0.07731 1.14373,0.129147 2.07035,0.272845 4.08565,0.586194 6.05508,0.932739 0.10097,0.01819 0.20796,0.03305 0.30582,0.0479 10.30279,1.836012 19.14687,4.630592 26.07351,7.952372 0.0765,0.03699 0.15902,0.07366 0.23548,0.110654 1.2416,0.600929 2.40368,1.223987 3.51378,1.854414 0.17125,0.0958 0.34862,0.191901 0.51682,0.287701 0.99388,0.578796 1.91132,1.172358 2.79511,1.769618 0.24466,0.16583 0.50154,0.331811 0.73701,0.5014 0.76147,0.541963 1.45872,1.091294 2.12845,1.64799 0.29053,0.239802 0.58411,0.482968 0.85628,0.726286 0.56269,0.5014 1.06728,1.006499 1.55046,1.515266 0.29053,0.306012 0.58105,0.611993 0.84405,0.921704 0.39449,0.464505 0.74617,0.929041 1.07339,1.397274 0.24771,0.353913 0.48931,0.707854 0.69725,1.065464 0.263,0.438737 0.48625,0.881142 0.68808,1.323546 0.17126,0.376074 0.3211,0.748417 0.44649,1.120792 0.14678,0.438706 0.26299,0.88114 0.34862,1.319847 0.11927,0.604626 0.24465,1.201886 0.24465,1.799146 0,13.080634 -28.88393,27.6507 -70.336726,27.6507 -41.452796,0 -70.336726,-14.570066 -70.336726,-27.6507 0,-8.921974 13.452663,-18.525973 35.146956,-23.739062 z m 35.18977,184.113212 c -39.865633,0 -68.504913,-13.6521 -70.238867,-26.40458 -0.02447,-0.16584 -0.05504,-0.32815 -0.09786,-0.48297 v -31.02042 c 0.08563,0.0958 0.192661,0.18796 0.281346,0.28376 0.66667,0.70785 1.345572,1.41201 2.110103,2.0904 11.519932,10.50356 34.556738,18.66606 67.945277,18.66606 33.247867,0 56.226577,-8.09613 67.795427,-18.53704 0.92356,-0.81108 1.75536,-1.64799 2.53824,-2.49964 l 0.003,-0.003 v 31.00564 c -0.0428,0.16219 -0.0734,0.32815 -0.0978,0.49774 -0.10097,0.75208 -0.31498,1.50787 -0.59939,2.25998 -0.11005,0.29134 -0.28135,0.5825 -0.41897,0.87374 -5.53213,11.75709 -32.61177,23.27087 -69.22051,23.27087 z m 100.820046,-44.8384 c -0.96942,7.156 -10.1346,14.34518 -24.37931,19.37392 0.009,-0.11065 0.0122,-0.22858 0.0122,-0.34288 v -36.23346 c 0.1315,-0.0443 0.25382,-0.0922 0.38533,-0.13643 1.22324,-0.41294 2.41591,-0.83692 3.57187,-1.27561 0.0122,-0.003 0.0275,-0.0121 0.0398,-0.0152 9.05509,-3.45081 15.96338,-7.73849 20.46799,-12.63453 v 30.76985 c -0.0428,0.15856 -0.0734,0.32444 -0.0978,0.49404 z"
     id="path2"
     inkscape:connector-curvature="0"
     style="fill:#193264;fill-opacity:0.78431374;stroke:#444f60;stroke-width:3.35846066;stroke-miterlimit:4;stroke-dasharray:none;stroke-opacity:0" /><g
     id="g4"
     transform="translate(0,190)" /><g
     id="g6"
     transform="translate(0,190)" /><g
     id="g8"
     transform="translate(0,190)" /><g
     id="g10"
     transform="translate(0,190)" /><g
     id="g12"
     transform="translate(0,190)" /><g
     id="g14"
     transform="translate(0,190)" /><g
     id="g16"
     transform="translate(0,190)" /><g
     id="g18"
     transform="translate(0,190)" /><g
     id="g20"
     transform="translate(0,190)" /><g
     id="g22"
     transform="translate(0,190)" /><g
     id="g24"
     transform="translate(0,190)" /><g
     id="g26"
     transform="translate(0,190)" /><g
     id="g28"
     transform="translate(0,190)" /><g
     id="g30"
     transform="translate(0,190)" /><g
     id="g32"
     transform="translate(0,190)" /><g
     id="g4910"
     transform="matrix(1.9589451,0,0,3.0073641,228.81701,79.266764)"
     style="fill:#193264;fill-opacity:0.78431374"><path
       id="path4855"
       d="m 21.205,5.007 c -0.429,-0.444 -1.143,-0.444 -1.587,0 -0.429,0.429 -0.429,1.143 0,1.571 l 8.047,8.047 H 1.111 C 0.492,14.626 0,15.118 0,15.737 c 0,0.619 0.492,1.127 1.111,1.127 h 26.554 l -8.047,8.032 c -0.429,0.444 -0.429,1.159 0,1.587 0.444,0.444 1.159,0.444 1.587,0 l 9.952,-9.952 c 0.444,-0.429 0.444,-1.143 0,-1.571 z"
       style="fill:#193264;fill-opacity:0.78431374"
       inkscape:connector-curvature="0" /><g
       id="g4857"
       style="fill:#193264;fill-opacity:0.78431374" /><g
       id="g4859"
       style="fill:#193264;fill-opacity:0.78431374" /><g
       id="g4861"
       style="fill:#193264;fill-opacity:0.78431374" /><g
       id="g4863"
       style="fill:#193264;fill-opacity:0.78431374" /><g
       id="g4865"
       style="fill:#193264;fill-opacity:0.78431374" /><g
       id="g4867"
       style="fill:#193264;fill-opacity:0.78431374" /><g
       id="g4869"
       style="fill:#193264;fill-opacity:0.78431374" /><g
       id="g4871"
       style="fill:#193264;fill-opacity:0.78431374" /><g
       id="g4873"
       style="fill:#193264;fill-opacity:0.78431374" /><g
       id="g4875"
       style="fill:#193264;fill-opacity:0.78431374" /><g
       id="g4877"
       style="fill:#193264;fill-opacity:0.78431374" /><g
       id="g4879"
       style="fill:#193264;fill-opacity:0.78431374" /><g
       id="g4881"
       style="fill:#193264;fill-opacity:0.78431374" /><g
       id="g4883"
       style="fill:#193264;fill-opacity:0.78431374" /><g
       id="g4885"
       style="fill:#193264;fill-opacity:0.78431374" /></g><g
     id="g5119"
     transform="matrix(3.070606,0,0,3.3566663,317.9354,22.98043)"
     style="fill:#193264;fill-opacity:0.78431374"><g
       id="g5049"
       style="fill:#193264;fill-opacity:0.78431374"><path
         id="path5019"
         d="M 38.914,0 H 6.5 v 60 h 47 V 14.586 Z M 39.5,3.414 50.086,14 H 39.5 Z M 8.5,58 V 2 h 29 v 14 h 14 v 42 z"
         inkscape:connector-curvature="0"
         style="fill:#193264;fill-opacity:0.78431374" /><path
         id="path5021"
         d="m 16.5,17 h 9 c 0.552,0 1,-0.447 1,-1 0,-0.553 -0.448,-1 -1,-1 h -9 c -0.552,0 -1,0.447 -1,1 0,0.553 0.448,1 1,1 z"
         inkscape:connector-curvature="0"
         style="fill:#193264;fill-opacity:0.78431374" /><path
         id="path5023"
         d="m 33.5,37 h -17 c -0.552,0 -1,0.447 -1,1 0,0.553 0.448,1 1,1 h 17 c 0.552,0 1,-0.447 1,-1 0,-0.553 -0.448,-1 -1,-1 z"
         inkscape:connector-curvature="0"
         style="fill:#193264;fill-opacity:0.78431374" /><path
         id="path5025"
         d="m 43.5,30 h -7 c -0.552,0 -1,0.447 -1,1 0,0.553 0.448,1 1,1 h 7 c 0.552,0 1,-0.447 1,-1 0,-0.553 -0.448,-1 -1,-1 z"
         inkscape:connector-curvature="0"
         style="fill:#193264;fill-opacity:0.78431374" /><path
         id="path5027"
         d="m 16.5,25 h 5 c 0.552,0 1,-0.447 1,-1 0,-0.553 -0.448,-1 -1,-1 h -5 c -0.552,0 -1,0.447 -1,1 0,0.553 0.448,1 1,1 z"
         inkscape:connector-curvature="0"
         style="fill:#193264;fill-opacity:0.78431374" /><path
         id="path5029"
         d="m 31.5,25 h 7 c 0.552,0 1,-0.447 1,-1 0,-0.553 -0.448,-1 -1,-1 h -7 c -0.552,0 -1,0.447 -1,1 0,0.553 0.448,1 1,1 z"
         inkscape:connector-curvature="0"
         style="fill:#193264;fill-opacity:0.78431374" /><path
         id="path5031"
         d="m 25.5,24 c 0,0.26 0.11,0.52 0.29,0.71 0.19,0.18 0.45,0.29 0.71,0.29 0.26,0 0.52,-0.11 0.71,-0.29 0.18,-0.19 0.29,-0.45 0.29,-0.71 0,-0.261 -0.11,-0.521 -0.29,-0.71 -0.37,-0.37 -1.04,-0.37 -1.42,0 -0.18,0.189 -0.29,0.449 -0.29,0.71 z"
         inkscape:connector-curvature="0"
         style="fill:#193264;fill-opacity:0.78431374" /><path
         id="path5033"
         d="m 21.5,30 c -0.552,0 -1,0.447 -1,1 0,0.553 0.448,1 1,1 h 10 c 0.552,0 1,-0.447 1,-1 0,-0.553 -0.448,-1 -1,-1 z"
         inkscape:connector-curvature="0"
         style="fill:#193264;fill-opacity:0.78431374" /><path
         id="path5035"
         d="m 16.5,32 c 0.26,0 0.52,-0.11 0.71,-0.29 0.18,-0.19 0.29,-0.45 0.29,-0.71 0,-0.261 -0.11,-0.521 -0.29,-0.71 -0.37,-0.37 -1.05,-0.37 -1.42,0 -0.18,0.189 -0.29,0.439 -0.29,0.71 0,0.26 0.11,0.52 0.29,0.71 0.19,0.18 0.45,0.29 0.71,0.29 z"
         inkscape:connector-curvature="0"
         style="fill:#193264;fill-opacity:0.78431374" /><path
         id="path5037"
         d="m 43.5,44 h -7 c -0.552,0 -1,0.447 -1,1 0,0.553 0.448,1 1,1 h 7 c 0.552,0 1,-0.447 1,-1 0,-0.553 -0.448,-1 -1,-1 z"
         inkscape:connector-curvature="0"
         style="fill:#193264;fill-opacity:0.78431374" /><path
         id="path5039"
         d="m 31.5,44 h -10 c -0.552,0 -1,0.447 -1,1 0,0.553 0.448,1 1,1 h 10 c 0.552,0 1,-0.447 1,-1 0,-0.553 -0.448,-1 -1,-1 z"
         inkscape:connector-curvature="0"
         style="fill:#193264;fill-opacity:0.78431374" /><path
         id="path5041"
         d="m 15.79,44.29 c -0.18,0.18 -0.29,0.439 -0.29,0.71 0,0.27 0.1,0.52 0.29,0.71 0.19,0.18 0.45,0.29 0.71,0.29 0.27,0 0.52,-0.11 0.71,-0.29 0.18,-0.19 0.29,-0.45 0.29,-0.71 0,-0.271 -0.11,-0.521 -0.29,-0.7 -0.37,-0.38 -1.04,-0.38 -1.42,-0.01 z"
         inkscape:connector-curvature="0"
         style="fill:#193264;fill-opacity:0.78431374" /><path
         id="path5043"
         d="m 42.79,23.29 c -0.18,0.189 -0.29,0.449 -0.29,0.71 0,0.26 0.11,0.52 0.29,0.71 0.19,0.18 0.45,0.29 0.71,0.29 0.26,0 0.52,-0.11 0.71,-0.29 0.19,-0.19 0.29,-0.45 0.29,-0.71 0,-0.261 -0.1,-0.521 -0.29,-0.71 -0.38,-0.37 -1.04,-0.37 -1.42,0 z"
         inkscape:connector-curvature="0"
         style="fill:#193264;fill-opacity:0.78431374" /><path
         id="path5045"
         d="m 39.21,38.71 c 0.18,-0.19 0.29,-0.45 0.29,-0.71 0,-0.261 -0.11,-0.521 -0.29,-0.71 -0.38,-0.37 -1.05,-0.37 -1.42,0 -0.18,0.189 -0.29,0.449 -0.29,0.71 0,0.26 0.11,0.52 0.29,0.71 0.19,0.189 0.44,0.29 0.71,0.29 0.27,0 0.52,-0.11 0.71,-0.29 z"
         inkscape:connector-curvature="0"
         style="fill:#193264;fill-opacity:0.78431374" /><path
         id="path5047"
         d="m 42.79,37.29 c -0.18,0.189 -0.29,0.449 -0.29,0.71 0,0.26 0.11,0.52 0.29,0.71 0.19,0.18 0.44,0.29 0.71,0.29 0.27,0 0.52,-0.11 0.71,-0.29 0.18,-0.19 0.29,-0.45 0.29,-0.71 0,-0.261 -0.11,-0.521 -0.29,-0.71 -0.37,-0.37 -1.05,-0.37 -1.42,0 z"
         inkscape:connector-curvature="0"
         style="fill:#193264;fill-opacity:0.78431374" /></g><g
       id="g5051"
       style="fill:#193264;fill-opacity:0.78431374" /><g
       id="g5053"
       style="fill:#193264;fill-opacity:0.78431374" /><g
       id="g5055"
       style="fill:#193264;fill-opacity:0.78431374" /><g
       id="g5057"
       style="fill:#193264;fill-opacity:0.78431374" /><g
       id="g5059"
       style="fill:#193264;fill-opacity:0.78431374" /><g
       id="g5061"
       style="fill:#193264;fill-opacity:0.78431374" /><g
       id="g5063"
       style="fill:#193264;fill-opacity:0.78431374" /><g
       id="g5065"
       style="fill:#193264;fill-opacity:0.78431374" /><g
       id="g5067"
       style="fill:#193264;fill-opacity:0.78431374" /><g
       id="g5069"
       style="fill:#193264;fill-opacity:0.78431374" /><g
       id="g5071"
       style="fill:#193264;fill-opacity:0.78431374" /><g
       id="g5073"
       style="fill:#193264;fill-opacity:0.78431374" /><g
       id="g5075"
       style="fill:#193264;fill-opacity:0.78431374" /><g
       id="g5077"
       style="fill:#193264;fill-opacity:0.78431374" /><g
       id="g5079"
       style="fill:#193264;fill-opacity:0.78431374" /></g></svg>