<?xml version="1.0" encoding="UTF-8" standalone="no"?>
<!-- Generator: Adobe Illustrator 19.0.0, SVG Export Plug-In . SVG Version: 6.00 Build 0)  -->

<svg
   xmlns:dc="http://purl.org/dc/elements/1.1/"
   xmlns:cc="http://creativecommons.org/ns#"
   xmlns:rdf="http://www.w3.org/1999/02/22-rdf-syntax-ns#"
   xmlns:svg="http://www.w3.org/2000/svg"
   xmlns="http://www.w3.org/2000/svg"
   xmlns:sodipodi="http://sodipodi.sourceforge.net/DTD/sodipodi-0.dtd"
   xmlns:inkscape="http://www.inkscape.org/namespaces/inkscape"
   version="1.1"
   id="Layer_1"
   x="0px"
   y="0px"
   viewBox="0 0 491.996 491.996"
   style="enable-background:new 0 0 491.996 491.996;"
   xml:space="preserve"
   sodipodi:docname="down-arrow.svg"
   inkscape:version="0.92.2 5c3e80d, 2017-08-06"><metadata
     id="metadata43"><rdf:RDF><cc:Work
         rdf:about=""><dc:format>image/svg+xml</dc:format><dc:type
           rdf:resource="http://purl.org/dc/dcmitype/StillImage" /></cc:Work></rdf:RDF></metadata><defs
     id="defs41"><marker
       inkscape:stockid="Arrow1Mend"
       orient="auto"
       refY="0.0"
       refX="0.0"
       id="Arrow1Mend"
       style="overflow:visible;"
       inkscape:isstock="true"><path
         id="path4770"
         d="M 0.0,0.0 L 5.0,-5.0 L -12.5,0.0 L 5.0,5.0 L 0.0,0.0 z "
         style="fill-rule:evenodd;stroke:#000000;stroke-width:1.0pt;"
         transform="scale(0.4) rotate(180) translate(10,0)" /></marker><marker
       inkscape:stockid="Arrow1Mstart"
       orient="auto"
       refY="0.0"
       refX="0.0"
       id="Arrow1Mstart"
       style="overflow:visible"
       inkscape:isstock="true"><path
         id="path4767"
         d="M 0.0,0.0 L 5.0,-5.0 L -12.5,0.0 L 5.0,5.0 L 0.0,0.0 z "
         style="fill-rule:evenodd;stroke:#000000;stroke-width:1.0pt"
         transform="scale(0.4) translate(10,0)" /></marker><marker
       inkscape:stockid="Arrow1Lend"
       orient="auto"
       refY="0.0"
       refX="0.0"
       id="Arrow1Lend"
       style="overflow:visible;"
       inkscape:isstock="true"><path
         id="path4764"
         d="M 0.0,0.0 L 5.0,-5.0 L -12.5,0.0 L 5.0,5.0 L 0.0,0.0 z "
         style="fill-rule:evenodd;stroke:#000000;stroke-width:1.0pt;"
         transform="scale(0.8) rotate(180) translate(12.5,0)" /></marker><marker
       inkscape:stockid="Arrow1Lstart"
       orient="auto"
       refY="0.0"
       refX="0.0"
       id="Arrow1Lstart"
       style="overflow:visible"
       inkscape:isstock="true"><path
         id="path4761"
         d="M 0.0,0.0 L 5.0,-5.0 L -12.5,0.0 L 5.0,5.0 L 0.0,0.0 z "
         style="fill-rule:evenodd;stroke:#000000;stroke-width:1.0pt"
         transform="scale(0.8) translate(12.5,0)" /></marker></defs><sodipodi:namedview
     pagecolor="#ffffff"
     bordercolor="#666666"
     borderopacity="1"
     objecttolerance="10"
     gridtolerance="10"
     guidetolerance="10"
     inkscape:pageopacity="0"
     inkscape:pageshadow="2"
     inkscape:window-width="1327"
     inkscape:window-height="657"
     id="namedview39"
     showgrid="false"
     inkscape:zoom="0.47967869"
     inkscape:cx="195.96451"
     inkscape:cy="245.998"
     inkscape:window-x="0"
     inkscape:window-y="0"
     inkscape:window-maximized="0"
     inkscape:current-layer="g4" /><g
     id="g6"
     style="fill:#193264;fill-opacity:0.39215686;stroke-width:5;stroke-miterlimit:4;stroke-dasharray:none"><g
       id="g4"
       style="fill:#193264;fill-opacity:0.39215686;stroke-width:5;stroke-miterlimit:4;stroke-dasharray:none"
       transform="matrix(1,0,0,0.99282612,0,2.8071239)"><path
         d="m 484.132,120.42305 -16.116,-13.17927 c -5.072,-4.11588 -11.82,-6.38335 -19.032,-6.38335 -7.208,0 -13.964,2.26747 -19.036,6.38335 L 246.108,256.55251 62.056,107.07811 c -5.064,-4.11589 -11.82,-6.38011 -19.028,-6.38011 -7.208,0 -13.968,2.26422 -19.036,6.38011 l -16.12,13.09805 c -10.496,8.51763 -10.496,22.39208 0,30.90972 l 219.136,178.6072 c 5.064,4.11263 11.812,7.01032 19.084,7.01032 h 0.084 c 7.212,0 13.96,-2.90094 19.024,-7.01032 L 484.132,151.56991 c 5.072,-4.11264 7.856,-9.75857 7.864,-15.61242 0,-5.85708 -2.792,-11.42506 -7.864,-15.53444 z"
         id="path2"
         inkscape:connector-curvature="0"
         style="opacity:0.75;fill:#193264;fill-opacity:0.39215686;stroke-width:16.05770111;stroke-miterlimit:4;stroke-dasharray:none" /></g></g><g
     id="g8" /><g
     id="g10" /><g
     id="g12" /><g
     id="g14" /><g
     id="g16" /><g
     id="g18" /><g
     id="g20" /><g
     id="g22" /><g
     id="g24" /><g
     id="g26" /><g
     id="g28" /><g
     id="g30" /><g
     id="g32" /><g
     id="g34" /><g
     id="g36" /></svg>