<?xml version="1.0" encoding="UTF-8" standalone="no"?>
<!-- Generator: Adobe Illustrator 21.1.0, SVG Export Plug-In . SVG Version: 6.00 Build 0)  -->

<svg
   xmlns:dc="http://purl.org/dc/elements/1.1/"
   xmlns:cc="http://creativecommons.org/ns#"
   xmlns:rdf="http://www.w3.org/1999/02/22-rdf-syntax-ns#"
   xmlns:svg="http://www.w3.org/2000/svg"
   xmlns="http://www.w3.org/2000/svg"
   xmlns:xlink="http://www.w3.org/1999/xlink"
   xmlns:sodipodi="http://sodipodi.sourceforge.net/DTD/sodipodi-0.dtd"
   xmlns:inkscape="http://www.inkscape.org/namespaces/inkscape"
   version="1.1"
   id="Layer_1"
   x="0px"
   y="0px"
   viewBox="0 0 500 150"
   xml:space="preserve"
   sodipodi:docname="ml-libs.svg"
   width="500"
   height="150"
   inkscape:version="0.92.2 5c3e80d, 2017-08-06"><metadata
     id="metadata17"><rdf:RDF><cc:Work
         rdf:about=""><dc:format>image/svg+xml</dc:format><dc:type
           rdf:resource="http://purl.org/dc/dcmitype/StillImage" /><dc:title /></cc:Work></rdf:RDF></metadata><defs
     id="defs15"><linearGradient
       id="linearGradient2795"><stop
         id="stop2797"
         offset="0"
         style="stop-color:#b8b8b8;stop-opacity:0.49803922;" /><stop
         id="stop2799"
         offset="1"
         style="stop-color:#7f7f7f;stop-opacity:0;" /></linearGradient><linearGradient
       id="linearGradient2787"><stop
         id="stop2789"
         offset="0"
         style="stop-color:#7f7f7f;stop-opacity:0.5;" /><stop
         id="stop2791"
         offset="1"
         style="stop-color:#7f7f7f;stop-opacity:0;" /></linearGradient><linearGradient
       id="linearGradient3676"><stop
         id="stop3678"
         offset="0"
         style="stop-color:#b2b2b2;stop-opacity:0.5;" /><stop
         id="stop3680"
         offset="1"
         style="stop-color:#b3b3b3;stop-opacity:0;" /></linearGradient><linearGradient
       id="linearGradient3236"><stop
         id="stop3244"
         offset="0"
         style="stop-color:#f4f4f4;stop-opacity:1" /><stop
         id="stop3240"
         offset="1"
         style="stop-color:white;stop-opacity:1" /></linearGradient><linearGradient
       id="linearGradient4671"><stop
         id="stop4673"
         offset="0"
         style="stop-color:#ffd43b;stop-opacity:1;" /><stop
         id="stop4675"
         offset="1"
         style="stop-color:#ffe873;stop-opacity:1" /></linearGradient><linearGradient
       id="linearGradient4689"><stop
         id="stop4691"
         offset="0"
         style="stop-color:#5a9fd4;stop-opacity:1;" /><stop
         id="stop4693"
         offset="1"
         style="stop-color:#306998;stop-opacity:1;" /></linearGradient><linearGradient
       gradientTransform="translate(100.2702,99.61116)"
       gradientUnits="userSpaceOnUse"
       xlink:href="#linearGradient4671"
       id="linearGradient2987"
       y2="144.75717"
       x2="-65.308502"
       y1="144.75717"
       x1="224.23996" /><linearGradient
       gradientTransform="translate(100.2702,99.61116)"
       gradientUnits="userSpaceOnUse"
       xlink:href="#linearGradient4689"
       id="linearGradient2990"
       y2="76.313133"
       x2="26.670298"
       y1="77.475983"
       x1="172.94208" /><linearGradient
       y2="144.75717"
       x2="-65.308502"
       y1="144.75717"
       x1="224.23996"
       gradientTransform="matrix(0.562541,0,0,0.567972,-11.5974,-7.60954)"
       gradientUnits="userSpaceOnUse"
       id="linearGradient2255"
       xlink:href="#linearGradient4671"
       inkscape:collect="always" /><linearGradient
       y2="76.313133"
       x2="26.670298"
       y1="76.176224"
       x1="172.94208"
       gradientTransform="matrix(0.562541,0,0,0.567972,-11.5974,-7.60954)"
       gradientUnits="userSpaceOnUse"
       id="linearGradient2258"
       xlink:href="#linearGradient4689"
       inkscape:collect="always" /><radialGradient
       gradientUnits="userSpaceOnUse"
       gradientTransform="matrix(1,0,0,0.177966,0,108.7434)"
       r="29.036913"
       fy="132.28575"
       fx="61.518883"
       cy="132.28575"
       cx="61.518883"
       id="radialGradient2801"
       xlink:href="#linearGradient2795"
       inkscape:collect="always" /><linearGradient
       y2="137.27299"
       x2="112.03144"
       y1="192.35176"
       x1="150.96111"
       gradientTransform="matrix(0.562541,0,0,0.567972,-9.399749,-5.305317)"
       gradientUnits="userSpaceOnUse"
       id="linearGradient1475"
       xlink:href="#linearGradient4671"
       inkscape:collect="always" /><linearGradient
       y2="114.39767"
       x2="135.66525"
       y1="20.603781"
       x1="26.648937"
       gradientTransform="matrix(0.562541,0,0,0.567972,-9.399749,-5.305317)"
       gradientUnits="userSpaceOnUse"
       id="linearGradient1478"
       xlink:href="#linearGradient4689"
       inkscape:collect="always" /><radialGradient
       r="29.036913"
       fy="132.28575"
       fx="61.518883"
       cy="132.28575"
       cx="61.518883"
       gradientTransform="matrix(2.382716e-8,-0.296405,1.43676,4.683673e-7,-128.544,150.5202)"
       gradientUnits="userSpaceOnUse"
       id="radialGradient1480"
       xlink:href="#linearGradient2795"
       inkscape:collect="always" /></defs><sodipodi:namedview
     pagecolor="#ffffff"
     bordercolor="#666666"
     borderopacity="1"
     objecttolerance="10"
     gridtolerance="10"
     guidetolerance="10"
     inkscape:pageopacity="0"
     inkscape:pageshadow="2"
     inkscape:window-width="1393"
     inkscape:window-height="733"
     id="namedview13"
     showgrid="false"
     inkscape:zoom="1.1"
     inkscape:cx="261.35548"
     inkscape:cy="109.77273"
     inkscape:window-x="0"
     inkscape:window-y="0"
     inkscape:window-maximized="0"
     inkscape:current-layer="Layer_1" /><style
     type="text/css"
     id="style2">
	.st0{fill:#D00000;}
	.st1{fill:#FFFFFF;}
</style><path
     class="st0"
     d="M 26.083916,41.0516 H 72.651985 V 82.837533 H 26.083916 Z"
     id="path4"
     inkscape:connector-curvature="0"
     style="fill:#d00000;stroke-width:0.12095487" /><path
     class="st1"
     d="m 43.398505,73.304794 v -7.756807 l 3.51144,-3.139388 8.81052,11.675314 4.034963,0.02294 0.740596,-1.363458 -10.240635,-13.33666 9.436197,-8.604675 -0.536295,-1.363455 H 55.133098 L 43.398505,59.96815 v -9.727519 l -0.855514,-0.802035 h -2.911302 l -0.855516,0.802035 v 23.029812 l 0.90659,0.824951 2.809152,-0.01145 z"
     id="path6"
     inkscape:connector-curvature="0"
     style="fill:#ffffff;stroke-width:0.12095487" /><g
     id="g10"
     transform="matrix(0.1276887,0,0,0.11457618,26.083916,41.0516)"><path
       d="m 477.1,73.2 h 27.2 v 107.9 h 1 L 594.9,73.2 h 30.8 l -67.3,82 77.8,133.2 h -30.5 l -64.3,-111.9 -37.1,43.6 v 68.2 H 477.1 Z M 650.3,209 c 0,-13.1 2,-24.9 6.1,-35.3 4,-10.4 9.4,-19.2 16.1,-26.4 6.7,-7.2 14.3,-12.7 22.8,-16.6 8.5,-3.8 17.4,-5.7 26.6,-5.7 10.1,0 19.1,1.8 27.1,5.2 8,3.5 14.7,8.5 20,15.1 5.4,6.6 9.5,14.4 12.3,23.6 2.8,9.2 4.3,19.5 4.3,30.8 0,5.9 -0.3,10.8 -1,14.8 H 676.9 c 1.1,17.3 6.4,30.9 15.9,41 9.5,10.1 21.9,15.1 37.2,15.1 7.7,0 14.7,-1.1 21.2,-3.4 6.5,-2.3 12.7,-5.3 18.5,-9 l 9.5,17.7 c -7,4.4 -14.8,8.2 -23.3,11.5 -8.5,3.3 -18.3,4.9 -29.2,4.9 -10.7,0 -20.7,-1.9 -30,-5.7 -9.3,-3.8 -17.4,-9.3 -24.3,-16.4 -6.9,-7.1 -12.3,-15.8 -16.2,-26.1 -3.9,-10.3 -5.9,-22 -5.9,-35.1 z m 111.6,-12.1 c 0,-16.4 -3.4,-28.9 -10.3,-37.6 -6.9,-8.6 -16.6,-13 -29,-13 -5.7,0 -11.1,1.1 -16.2,3.4 -5.1,2.3 -9.8,5.6 -13.9,9.8 -4.2,4.3 -7.6,9.5 -10.3,15.7 -2.7,6.2 -4.5,13.4 -5.4,21.5 h 85.1 z m 63,-67.9 h 22.3 l 2.3,28.9 h 1 c 5.5,-10.1 12.1,-18 19.8,-23.9 7.8,-5.9 16.2,-8.9 25.4,-8.9 6.3,0 12,1.1 17.1,3.3 l -5.2,23.6 c -2.6,-0.9 -5,-1.5 -7.2,-2 -2.2,-0.4 -4.9,-0.7 -8.2,-0.7 -6.8,0 -13.8,2.7 -21.2,8.2 -7.3,5.5 -13.7,15 -19.2,28.5 v 102.4 h -26.9 z m 97.7,118.1 c 0,-17.5 7.8,-30.9 23.5,-40.2 15.6,-9.3 40.5,-15.8 74.6,-19.5 0,-5 -0.5,-10 -1.5,-14.8 -1,-4.8 -2.7,-9.1 -5.3,-12.8 -2.5,-3.7 -5.9,-6.7 -10,-9 -4.2,-2.3 -9.5,-3.4 -16.1,-3.4 -9.4,0 -18.1,1.8 -26.1,5.2 -8,3.5 -15.1,7.4 -21.5,11.8 l -10.8,-18.7 c 7.4,-4.8 16.5,-9.5 27.2,-13.9 10.7,-4.5 22.5,-6.7 35.4,-6.7 19.5,0 33.6,6 42.3,17.9 8.7,11.9 13.1,27.8 13.1,47.7 v 97.8 h -22.3 l -2.3,-19 h -0.7 c -7.6,6.3 -15.9,11.8 -24.8,16.2 -8.9,4.5 -18.2,6.7 -28,6.7 -13.6,0 -24.8,-3.9 -33.6,-11.8 -8.6,-7.9 -13.1,-19.1 -13.1,-33.5 z m 26.6,-2 c 0,9.2 2.7,15.7 8,19.7 5.4,3.9 12,5.9 19.8,5.9 7.7,0 14.9,-1.8 21.8,-5.4 6.9,-3.6 14.2,-8.9 21.8,-15.9 v -44.3 c -13.3,1.8 -24.6,3.8 -33.8,6.2 -9.2,2.4 -16.6,5.2 -22.1,8.5 -5.6,3.3 -9.6,7.1 -12,11.3 -2.4,4.2 -3.5,9 -3.5,14 z m 145,7.2 c 7,5.7 14.2,10.3 21.5,13.8 7.3,3.5 15.8,5.2 25.4,5.2 10.5,0 18.4,-2.4 23.6,-7.2 5.3,-4.8 7.9,-10.7 7.9,-17.7 0,-4.2 -1.1,-7.8 -3.3,-10.8 -2.2,-3 -5,-5.7 -8.4,-8 -3.4,-2.3 -7.3,-4.3 -11.6,-6.1 l -13.1,-5.2 c -5.8,-2 -11.5,-4.2 -17.1,-6.7 -5.7,-2.5 -10.8,-5.6 -15.3,-9.2 -4.5,-3.6 -8.1,-7.8 -11,-12.6 -2.8,-4.8 -4.3,-10.6 -4.3,-17.4 0,-6.3 1.3,-12.3 3.8,-17.9 2.5,-5.6 6.1,-10.4 10.8,-14.4 4.7,-4 10.4,-7.2 17.2,-9.5 6.8,-2.3 14.4,-3.4 23,-3.4 10.1,0 19.3,1.8 27.7,5.2 8.4,3.5 15.7,7.8 21.8,12.8 l -12.8,17.1 c -5.5,-4.2 -11.2,-7.5 -17.1,-10.2 -5.9,-2.6 -12.4,-3.9 -19.4,-3.9 -10.1,0 -17.5,2.3 -22.1,6.9 -4.7,4.6 -7.1,10 -7.1,16.1 0,3.7 1,6.9 3,9.7 2,2.7 4.6,5.1 7.9,7.2 3.3,2.1 7.1,3.9 11.3,5.6 4.3,1.6 8.7,3.3 13.3,5.1 5.8,2.2 11.5,4.5 17.2,6.9 5.8,2.4 11,5.4 15.6,9 4.6,3.6 8.4,8 11.3,13.3 3,5.2 4.4,11.6 4.4,19 0,6.6 -1.3,12.7 -3.8,18.4 -2.5,5.7 -6.2,10.7 -11.2,15.1 -4.9,4.4 -11.1,7.8 -18.4,10.3 -7.3,2.5 -15.7,3.8 -25.1,3.8 -11.4,0 -22.2,-2.1 -32.5,-6.2 -10.3,-4.2 -19.3,-9.4 -26.9,-15.7 z"
       id="path8"
       inkscape:connector-curvature="0" /></g><g
     id="g8649"
     transform="matrix(0.30708756,0,0,0.25097505,234.8674,110.1674)"><path
       d="m 184.61344,61.929363 c 0,-14.56215 -4.15226,-22.03817 -12.45678,-22.44755 -3.30427,-0.15595 -6.53055,0.37039 -9.66912,1.58878 -2.505,0.89673 -4.19124,1.78372 -5.07823,2.68045 v 34.75812 c 5.31216,3.33351 10.02976,4.88329 14.14303,4.63962 8.70415,-0.57508 13.0611,-7.64172 13.0611,-21.21942 z m 10.24419,0.60432 c 0,7.39804 -1.73498,13.53871 -5.22444,18.422 -3.88909,5.5266 -9.27923,8.37275 -16.17042,8.52871 -5.1952,0.1657 -10.54635,-1.46207 -16.05346,-4.87355 v 31.590317 l -8.90884,-3.17755 V 42.903043 c 1.46206,-1.79346 3.34325,-3.3335 5.62407,-4.63961 5.30242,-3.08983 11.74524,-4.67861 19.32848,-4.75658 l 0.12671,0.12671 c 6.93018,-0.08773 12.27159,2.75843 16.02422,8.5287 3.4992,5.29267 5.25368,12.07665 5.25368,20.37142 z"
       style="fill:#646464;fill-opacity:1"
       id="path46"
       inkscape:connector-curvature="0" /><path
       d="m 249.30487,83.265743 c 0,9.92254 -0.9942,16.794237 -2.9826,20.615097 -1.99816,3.82086 -5.79952,6.8717 -11.41385,9.14277 -4.55189,1.79346 -9.47417,2.76817 -14.75709,2.93387 l -1.47181,-5.61432 c 5.37064,-0.73103 9.15252,-1.46207 11.34561,-2.1931 4.31796,-1.46206 7.28108,-3.70389 8.90884,-6.706 1.30611,-2.446517 1.94942,-7.115367 1.94942,-14.026057 v -2.3198 c -6.09193,2.76817 -12.47628,4.14251 -19.15303,4.14251 -4.38619,0 -8.25579,-1.37434 -11.58929,-4.14251 -3.74289,-3.01186 -5.61433,-6.83272 -5.61433,-11.46258 v -37.07793 l 8.90884,-3.05084 v 37.3216 c 0,3.98656 1.28662,7.0569 3.85985,9.21101 2.57323,2.1541 5.90674,3.18729 9.99077,3.10932 4.08403,-0.08773 8.46047,-1.66676 13.10983,-4.75658 v -43.54025 h 8.90884 z"
       style="fill:#646464;fill-opacity:1"
       id="path48"
       inkscape:connector-curvature="0" /><path
       d="m 284.08249,88.997033 c -1.06243,0.08772 -2.03714,0.12671 -2.93387,0.12671 -5.03925,0 -8.96733,-1.19889 -11.77449,-3.60642 -2.79742,-2.40753 -4.20099,-5.73129 -4.20099,-9.97127 v -35.08953 h -6.10168 v -5.60457 h 6.10168 v -14.88381 l 8.89909,-3.16781 v 18.05162 h 10.01026 v 5.60457 h -10.01026 v 34.84585 c 0,3.34325 0.89673,5.71179 2.6902,7.09588 1.54004,1.14041 3.98656,1.79347 7.32006,1.95917 z"
       style="fill:#646464;fill-opacity:1"
       id="path50"
       inkscape:connector-curvature="0" /><path
       d="m 338.02288,88.266003 h -8.90884 v -34.38773 c 0,-3.49921 -0.81876,-6.51106 -2.44651,-9.02581 -1.88119,-2.84615 -4.49342,-4.26923 -7.84641,-4.26923 -4.08404,0 -9.19152,2.15411 -15.32242,6.46233 v 41.22044 h -8.90885 V 6.0687929 l 8.90885,-2.80716 V 40.700203 c 5.6923,-4.14251 11.91093,-6.21864 18.66566,-6.21864 4.7176,0 8.53846,1.58877 11.46258,4.75658 2.93388,3.1678 4.39594,7.11537 4.39594,11.83296 z"
       style="fill:#646464;fill-opacity:1"
       id="path52"
       inkscape:connector-curvature="0" /><path
       d="m 385.37424,60.525783 c 0,-5.59483 -1.06242,-10.21495 -3.17755,-13.87011 -2.51474,-4.45442 -6.42332,-6.80347 -11.70625,-7.04715 -9.76658,0.56534 -14.64012,7.56375 -14.64012,20.97574 0,6.15042 1.01369,11.28713 3.06057,15.41015 2.61223,5.25368 6.53056,7.84641 11.755,7.75869 9.80557,-0.07798 14.70835,-7.81717 14.70835,-23.22732 z m 9.75685,0.05848 c 0,7.96338 -2.03714,14.5914 -6.10168,19.88407 -4.47391,5.92623 -10.65357,8.89909 -18.53897,8.89909 -7.81716,0 -13.90909,-2.97286 -18.30503,-8.89909 -3.98656,-5.29267 -5.97497,-11.92069 -5.97497,-19.88407 0,-7.48576 2.15411,-13.78238 6.46232,-18.90935 4.5519,-5.43888 10.53661,-8.16806 17.93464,-8.16806 7.39805,0 13.42174,2.72918 18.06137,8.16806 4.3082,5.12697 6.46232,11.42359 6.46232,18.90935 z"
       style="fill:#646464;fill-opacity:1"
       id="path54"
       inkscape:connector-curvature="0" /><path
       d="m 446.20583,88.266003 h -8.90884 v -36.33715 c 0,-3.98656 -1.19889,-7.09588 -3.59667,-9.33772 -2.39779,-2.23208 -5.59483,-3.31401 -9.58139,-3.22628 -4.23023,0.07798 -8.25579,1.46206 -12.07664,4.14251 v 44.75864 h -8.90884 v -45.86006 c 5.12697,-3.73313 9.84456,-6.16991 14.15276,-7.31032 4.06455,-1.06243 7.65148,-1.58877 10.74131,-1.58877 2.11512,0 4.10352,0.20469 5.97496,0.61406 3.49921,0.80901 6.34535,2.31006 8.53845,4.51291 2.44651,2.43677 3.6649,5.3609 3.6649,8.78212 z"
       style="fill:#646464;fill-opacity:1"
       id="path56"
       inkscape:connector-curvature="0" /><path
       id="path1948"
       d="m 60.510156,6.3979729 c -4.583653,0.021298 -8.960939,0.4122177 -12.8125,1.09375 C 36.35144,9.4962267 34.291407,13.691825 34.291406,21.429223 v 10.21875 h 26.8125 v 3.40625 h -26.8125 -10.0625 c -7.792459,0 -14.6157592,4.683717 -16.7500002,13.59375 -2.46182,10.212966 -2.5710151,16.586023 0,27.25 1.9059283,7.937852 6.4575432,13.593748 14.2500002,13.59375 h 9.21875 v -12.25 c 0,-8.849902 7.657144,-16.656248 16.75,-16.65625 h 26.78125 c 7.454951,0 13.406253,-6.138164 13.40625,-13.625 v -25.53125 c 0,-7.266339 -6.12998,-12.7247775 -13.40625,-13.9375001 -4.605987,-0.7667253 -9.385097,-1.1150483 -13.96875,-1.09375 z m -14.5,8.2187501 c 2.769547,0 5.03125,2.298646 5.03125,5.125 -2e-6,2.816336 -2.261703,5.09375 -5.03125,5.09375 -2.779476,-1e-6 -5.03125,-2.277415 -5.03125,-5.09375 -1e-6,-2.826353 2.251774,-5.125 5.03125,-5.125 z"
       style="fill:url(#linearGradient1478);fill-opacity:1"
       inkscape:connector-curvature="0" /><path
       id="path1950"
       d="m 91.228906,35.054223 v 11.90625 c 0,9.230755 -7.825895,16.999999 -16.75,17 h -26.78125 c -7.335833,0 -13.406249,6.278483 -13.40625,13.625 v 25.531247 c 0,7.26634 6.318588,11.54032 13.40625,13.625 8.487331,2.49561 16.626237,2.94663 26.78125,0 6.750155,-1.95439 13.406253,-5.88761 13.40625,-13.625 V 92.897973 h -26.78125 v -3.40625 h 26.78125 13.406254 c 7.79246,0 10.69625,-5.435408 13.40624,-13.59375 2.79933,-8.398886 2.68022,-16.475776 0,-27.25 -1.92578,-7.757441 -5.60387,-13.59375 -13.40624,-13.59375 z m -15.0625,64.65625 c 2.779478,3e-6 5.03125,2.277417 5.03125,5.093747 -2e-6,2.82635 -2.251775,5.125 -5.03125,5.125 -2.76955,0 -5.03125,-2.29865 -5.03125,-5.125 2e-6,-2.81633 2.261697,-5.093747 5.03125,-5.093747 z"
       style="fill:url(#linearGradient1475);fill-opacity:1"
       inkscape:connector-curvature="0" /><path
       sodipodi:nodetypes="ccccccccccccccccccccccc"
       id="text3004"
       style="font-style:normal;font-weight:normal;font-size:15.16445827px;line-height:125%;font-family:'Bitstream Vera Sans';fill:#646464;fill-opacity:1;stroke:none;stroke-width:1px;stroke-linecap:butt;stroke-linejoin:miter;stroke-opacity:1"
       d="m 463.5544,26.909383 h 1.56195 v -9.79624 h 3.70013 v -1.16766 h -8.96221 v 1.16766 h 3.70013 v 9.79624 m 6.64702,0 h 1.33447 v -8.94703 l 2.89641,8.945906 h 1.48569 l 3.01816,-8.915576 v 8.9167 h 1.45579 v -10.9639 h -1.92589 l -3.29831,9.392857 -2.81297,-9.392857 h -2.15335 v 10.9639"
       inkscape:connector-curvature="0" /><ellipse
       transform="matrix(0.73406,0,0,0.809524,16.24958,27.00935)"
       id="path1894"
       style="opacity:0.44382025;fill:url(#radialGradient1480);fill-opacity:1;fill-rule:nonzero;stroke:none;stroke-width:20;stroke-miterlimit:4;stroke-dasharray:none;stroke-opacity:1"
       cx="61.518883"
       cy="132.28575"
       rx="48.948284"
       ry="8.6066771" /></g><g
     id="g8677"
     transform="matrix(0.40206733,0,0,0.37780728,95.719111,90.27426)"><rect
       class="selected"
       style="fill:none;stroke:none"
       y="0"
       x="0"
       height="100%"
       width="100%"
       id="backgroundrect" /><g
       id="g8659"
       class="currentLayer"><title
         id="title8652">Layer 1</title><path
         class=""
         id="svg_1"
         d="M 212.711,127.088 C 246.581,93.221 252.209,43.942 225.283,17.018 198.361,-9.903 149.084,-4.275 115.217,29.59 c -33.867,33.866 -24.07,98.568 -12.57,110.07 9.293,9.293 76.2,21.293 110.064,-12.572 z"
         inkscape:connector-curvature="0"
         style="fill:#f89939" /><path
         id="svg_2"
         d="M 73.741,78.15 C 54.093,58.504 25.5,55.233 9.874,70.857 c -15.62,15.622 -12.355,44.22 7.297,63.865 19.652,19.654 57.195,13.969 63.863,7.295 5.396,-5.387 12.361,-44.215 -7.293,-63.865 z"
         inkscape:connector-curvature="0"
         style="fill:#3499cd" /><path
         id="svg_3"
         d="m 138.167,72.595 c -0.154,0 -0.385,0.053 -0.69,0.155 l -9.73,3.601 c -3.318,6.331 -6.143,13.25 -8.463,20.76 -2.324,7.504 -3.486,13.942 -3.486,19.303 0,3.578 0.833,6.422 2.507,8.543 1.671,2.119 3.876,3.177 6.608,3.177 2.375,0 4.871,-0.759 7.488,-2.279 2.617,-1.515 5.662,-3.873 9.133,-7.068 v -0.045 c 0.412,2.4 1.398,4.422 2.969,6.062 2.135,2.22 4.937,3.33 8.41,3.33 3.117,0 5.96,-0.759 8.54,-2.279 2.487,-1.46 5.289,-3.722 8.39,-6.742 0.262,2.25 1,4.206 2.238,5.863 1.573,2.107 3.48,3.158 5.724,3.158 2.301,0 4.53,-0.865 6.686,-2.601 2.158,-1.74 4.515,-4.434 7.068,-8.084 -0.229,7.125 1.67,10.685 5.705,10.685 1.61,0 3.297,-0.585 5.059,-1.76 1.76,-1.175 4.682,-3.707 8.768,-7.587 h 0.002 c 3.548,-3.52 6.154,-6.815 7.814,-9.88 2.248,-0.383 4.314,-1.057 6.205,-2.028 -3.855,6.053 -5.785,10.876 -5.785,14.476 0,1.942 0.54,3.57 1.61,4.887 1.07,1.31 2.386,1.969 3.945,1.969 3.408,0 8.24,-3.048 14.48,-9.1 -0.013,0.468 -0.04,0.93 -0.04,1.404 0,1.683 0.142,4.25 0.421,7.698 l 8.465,-1.989 c 0,-2.303 0.037,-4.126 0.115,-5.476 0.13,-1.815 0.383,-3.81 0.768,-5.98 0.229,-1.279 0.816,-2.49 1.76,-3.638 l 2.148,-2.492 a 61.058,61.058 0 0 1 2.219,-2.453 42.914,42.914 0 0 1 2.144,-2.14 c 0.715,-0.637 1.34,-1.14 1.88,-1.497 0.585,-0.355 1.06,-0.535 1.417,-0.535 0.635,0 0.957,0.41 0.957,1.229 0,0.814 -0.602,2.73 -1.8,5.744 -2.249,5.615 -3.374,9.791 -3.374,12.523 0,2.017 0.524,3.626 1.573,4.825 1.047,1.2 2.425,1.8 4.136,1.8 4.211,0 9.27,-3.113 15.168,-9.347 v -4.4 c -4.173,4.927 -7.197,7.392 -9.064,7.392 -1.254,0 -1.881,-0.768 -1.881,-2.305 0,-1.155 0.754,-3.656 2.262,-7.51 2.193,-5.62 3.29,-9.656 3.29,-12.105 0,-1.474 -0.431,-2.706 -1.3,-3.688 -0.865,-0.98 -1.951,-1.47 -3.25,-1.47 -1.912,0 -4.1,0.894 -6.557,2.695 -2.46,1.803 -5.78,5.037 -9.969,9.71 0.613,-3.038 1.903,-7.196 3.868,-12.483 l -9.344,1.798 c -2.121,4.599 -3.658,8.733 -4.615,12.413 a 43.503,43.503 0 0 0 -1.059,5.554 c -2.934,2.83 -4.823,4.557 -5.664,5.188 -0.842,0.622 -1.725,0.935 -2.643,0.935 -0.842,0 -1.513,-0.316 -2.011,-0.959 -0.496,-0.634 -0.746,-1.492 -0.746,-2.566 0,-1.147 0.219,-2.47 0.652,-3.963 0.433,-1.492 1.391,-4.308 2.871,-8.445 l 3.56,-9.807 -3.482,0.154 c -3.168,6.028 -6.871,9.268 -11.11,9.729 1.152,-2.99 1.725,-5.286 1.725,-6.895 0,-2.044 -0.994,-3.062 -2.986,-3.062 -2.35,0 -4.195,1.117 -5.535,3.35 -1.344,2.237 -2.012,4.335 -2.012,6.304 0,1.912 1.096,3.355 3.295,4.326 a 50.206,50.206 0 0 1 -4.523,5.715 v -0.008 c -2.17,2.17 -3.852,3.785 -5.053,4.846 -1.201,1.06 -2.3,1.59 -3.291,1.59 -1.56,0 -2.336,-1.098 -2.336,-3.293 0,-2.093 0.871,-5.963 2.607,-11.608 L 206.4,94.7 h -2.148 l -7.828,4.326 c -1.277,-2.935 -3.512,-4.404 -6.705,-4.404 -2.525,0 -5.44,1.073 -8.733,3.218 -3.293,2.145 -5.992,4.951 -8.101,8.424 -1.634,2.697 -2.625,5.501 -2.99,8.41 -2.934,2.935 -5.158,4.87 -6.641,5.746 -1.531,0.904 -3.138,1.358 -4.824,1.358 -4.316,0 -6.984,-2.492 -8.004,-7.469 11.235,-3.295 16.853,-7.582 16.853,-12.87 0,-1.991 -0.716,-3.598 -2.146,-4.825 -1.432,-1.225 -3.332,-1.84 -5.707,-1.84 -4.57,0 -8.733,2.19 -12.483,6.57 -3.408,3.971 -5.25,8.372 -5.566,13.194 -3.106,3.05 -5.436,5.074 -6.963,6.054 -1.558,0.996 -3.025,1.49 -4.406,1.49 -1.354,0 -2.438,-0.648 -3.256,-1.953 -0.817,-1.303 -1.225,-3.062 -1.225,-5.285 0,-0.997 0.102,-2.82 0.307,-5.476 5.106,-5.541 8.858,-10.75 11.26,-15.63 2.403,-4.876 3.601,-9.92 3.601,-15.128 0,-1.838 -0.238,-3.299 -0.71,-4.387 -0.469,-1.083 -1.08,-1.627 -1.817,-1.627 z m -1.88,4.407 c 0.434,0 0.794,0.29 1.075,0.865 0.28,0.574 0.418,1.337 0.418,2.277 0,3.225 -1.007,7.074 -3.023,11.549 a 46.734,46.734 0 0 1 -7.891,12.121 c 1.736,-8.465 3.504,-15.052 5.305,-19.756 1.8,-4.705 3.176,-7.056 4.117,-7.056 z m 53.858,20.76 c 1.07,0 1.924,0.4 2.565,1.206 0.635,0.803 0.957,1.922 0.957,3.35 0,3.676 -1.129,7.694 -3.389,12.049 -2.264,4.353 -4.67,6.53 -7.223,6.53 -1.049,0 -1.908,-0.428 -2.584,-1.284 -0.676,-0.856 -1.015,-1.973 -1.015,-3.354 0,-3.648 1.145,-7.644 3.43,-11.986 2.28,-4.342 4.704,-6.512 7.26,-6.512 z m -32.904,0.077 c 1.785,0 2.68,1.225 2.68,3.676 0,4.954 -3.27,8.348 -9.805,10.188 0,-4.113 0.765,-7.449 2.3,-10.014 1.532,-2.569 3.139,-3.85 4.825,-3.85 z"
         inkscape:connector-curvature="0"
         style="fill:#010101" /><g
         id="svg_4"
         font-size="23.08"
         style="font-size:23.07999992px;font-family:Helvetica;fill:#ffffff"><path
           id="svg_5"
           d="m 156.026,78.16 q 0.09,1.014 0.507,1.555 0.767,0.98 2.66,0.98 1.127,0 1.983,-0.485 0.857,-0.495 0.857,-1.52 0,-0.778 -0.688,-1.184 -0.44,-0.248 -1.735,-0.575 l -1.612,-0.406 q -1.544,-0.383 -2.276,-0.856 -1.307,-0.823 -1.307,-2.276 0,-1.713 1.228,-2.773 1.24,-1.059 3.324,-1.059 2.728,0 3.933,1.6 0.755,1.014 0.733,2.186 h -1.916 q -0.056,-0.687 -0.484,-1.25 -0.7,-0.8 -2.423,-0.8 -1.15,0 -1.747,0.439 -0.586,0.44 -0.586,1.16 0,0.79 0.778,1.263 0.45,0.282 1.33,0.496 l 1.34,0.327 q 2.187,0.53 2.93,1.025 1.184,0.778 1.184,2.445 0,1.612 -1.229,2.784 -1.217,1.172 -3.719,1.172 -2.693,0 -3.82,-1.217 -1.116,-1.228 -1.194,-3.032 h 1.95 z m 2.998,-8.576 z m 12.036,-0.057 q 2.04,0 3.313,0.992 1.284,0.992 1.543,3.414 h -1.972 q -0.18,-1.115 -0.822,-1.848 -0.643,-0.743 -2.063,-0.743 -1.938,0 -2.772,1.893 -0.54,1.228 -0.54,3.031 0,1.815 0.766,3.054 0.766,1.24 2.411,1.24 1.262,0 1.995,-0.767 0.744,-0.777 1.025,-2.118 h 1.972 q -0.338,2.4 -1.69,3.516 -1.352,1.104 -3.46,1.104 -2.366,0 -3.775,-1.724 -1.408,-1.735 -1.408,-4.327 0,-3.178 1.543,-4.948 1.544,-1.769 3.933,-1.769 z m -0.316,0.057 z m 7.201,0.349 h 2.062 v 12.013 h -2.062 z m 0,-4.542 h 2.062 v 2.3 h -2.062 z m 5.094,0 h 1.95 v 9.613 l 5.206,-5.127 h 2.592 l -4.62,4.519 4.879,7.55 h -2.592 l -3.764,-6.085 -1.702,1.555 v 4.53 h -1.95 V 65.39 Z m 11.584,4.542 h 2.063 v 12.013 h -2.063 z m 0,-4.542 h 2.063 v 2.3 h -2.063 z m 5.545,1.116 h 2.051 v 3.37 h 1.927 v 1.656 h -1.927 v 7.877 q 0,0.631 0.428,0.846 0.237,0.123 0.789,0.123 h 0.316 q 0.169,-0.01 0.394,-0.033 v 1.6 q -0.35,0.101 -0.732,0.146 -0.372,0.046 -0.812,0.046 -1.42,0 -1.927,-0.722 -0.507,-0.732 -0.507,-1.893 v -7.99 h -1.634 v -1.656 h 1.634 z"
           inkscape:connector-curvature="0" /></g></g></g><g
     style="clip-rule:evenodd;fill-rule:evenodd;stroke-linejoin:round;stroke-miterlimit:1.41400003"
     id="g8711"
     transform="matrix(0.06918128,0,0,0.07050264,266.79128,41.521496)"><g
       id="g8687"
       style="fill-rule:nonzero"><path
         id="path8679"
         d="m 199.243,264.837 66.414,-38.537 65.594,38.537 -65.594,37.716 -66.414,-36.896 z"
         inkscape:connector-curvature="0"
         style="fill:#f6bd3a" /><path
         id="path8681"
         d="M 0,150.867 265.657,0 463.259,112.33 397.665,226.3 265.657,150.867 66.414,264.017 Z"
         inkscape:connector-curvature="0"
         style="fill:#f6bd3a" /><path
         id="path8683"
         d="M 199.243,415.703 V 340.27 l 65.594,-37.717 66.414,-37.716 v 75.433 l -65.594,37.717 v 75.433 l -66.414,38.537 z m 0,-150.866 -66.415,-37.717 -66.414,36.897 V 188.583 L 265.657,75.433 V 226.3 Z m 197.602,-76.254 v -37.716 l 66.414,-38.537 0.82,75.434 -66.414,38.536 z"
         inkscape:connector-curvature="0"
         style="fill:#eb8c23" /><path
         id="path8685"
         d="M 132.828,451.78 V 227.12 l 65.595,-36.897 0.82,74.614 66.414,36.897 v 76.253 L 199.243,342.73 V 491.957 Z M 32.798,244.34 0,224.66 v -73.793 l 66.414,37.716 v 75.434 L 32.797,244.339 Z M 265.657,150.868 V 75.433 l 131.188,75.434 0.82,75.433 -132.008,-75.433 z"
         inkscape:connector-curvature="0"
         style="fill:#e35a2b" /></g><path
       id="path8689"
       d="m 636.747,169.726 v 282.83 h -49.746 v -282.83 h -96.646 v -48.797 h 243.038 v 48.797 z"
       inkscape:connector-curvature="0"
       style="fill:#ef6639;fill-rule:nonzero" /><path
       id="path8691"
       d="m 898.006,272.54 c 4.263,15.16 4.35,35.115 4.036,37.643 l -160.56,47.6 c 1.264,12.003 0.896,7.137 4.685,15.665 3.79,8.528 8.528,15.554 14.213,21.08 5.686,5.528 12,9.637 18.95,12.318 a 59.952,59.952 0 0 0 21.795,4.028 c 10.421,0 19.975,-1.738 28.66,-5.21 8.686,-3.474 17.135,-8.372 25.346,-14.686 l 28.9,31.267 c -11.053,10.424 -23.374,18.479 -36.955,24.161 -13.579,5.686 -29.844,8.528 -48.797,8.528 -14.528,0 -28.344,-2.842 -41.453,-8.528 -13.108,-5.685 -24.555,-14.055 -34.347,-25.11 -9.79,-11.054 -17.53,-24.633 -23.212,-40.743 -5.686,-16.106 -8.531,-34.424 -8.531,-54.955 0,-21.16 2.687,-39.795 8.054,-55.901 5.371,-16.11 12.794,-29.612 22.269,-40.507 9.475,-10.897 20.922,-19.187 34.347,-24.873 13.423,-5.685 28.187,-8.528 44.296,-8.528 17.686,0 33.084,3.316 46.19,9.948 13.107,6.632 24.005,15.636 32.689,27.004 8.687,11.371 15.163,24.638 19.425,39.798 z m -46.656,11.243 c -0.632,-8.529 -6.519,-18.967 -11.38,-25.457 -4.455,-5.958 -10.846,-10.77 -17.764,-13.502 -7.264,-2.871 -17.133,-4.096 -25.82,-3.713 -16.294,0.714 -34.418,6.348 -43.57,18.927 -9.149,12.575 -11.668,33.724 -11.334,56.533 z m 226.92,165.94 V 309.017 c 0,-25.267 -4.5,-42.955 -13.502,-53.062 -9.002,-10.106 -21.557,-15.16 -37.667,-15.16 -16.421,0 -29.053,5.527 -37.899,16.58 -8.842,11.054 -13.264,26.69 -13.264,46.906 v 145.44 h -48.796 v -248.72 h 48.796 v 23.687 c 6.318,-9.16 15.081,-16.268 26.293,-21.318 11.212,-5.054 23.295,-7.582 36.244,-7.582 29.056,0 51.086,9.319 66.088,27.951 15.001,18.635 22.503,46.43 22.503,83.382 v 142.6 h -48.796 z m 249.211,-65.386 c 0,13.896 -2.607,25.502 -7.816,34.821 -5.213,9.316 -12.08,16.818 -20.608,22.504 -8.53,5.682 -18.4,9.789 -29.612,12.317 -11.212,2.525 -22.977,3.79 -35.294,3.79 -17.053,0 -34.03,-3.002 -50.93,-9.002 -16.895,-6 -31.659,-13.582 -44.293,-22.742 l 22.265,-36.952 c 11.685,8.214 23.768,14.37 36.244,18.479 12.473,4.104 24.555,6.156 36.24,6.156 30.321,0 45.481,-9.157 45.481,-27.478 0,-9.474 -5.13,-17.053 -15.395,-22.738 -10.266,-5.686 -24.4,-12.003 -42.403,-18.953 -13.264,-5.053 -24.555,-10.183 -33.874,-15.395 -9.316,-5.212 -16.898,-10.818 -22.739,-16.818 -5.844,-6.003 -10.027,-12.714 -12.555,-20.134 -2.526,-7.426 -3.79,-16.03 -3.79,-25.82 0,-11.053 2.052,-20.845 6.159,-29.374 a 57.39,57.39 0 0 1 17.53,-21.318 c 7.578,-5.686 16.58,-9.949 27.004,-12.791 10.421,-2.843 21.792,-4.266 34.11,-4.266 15.792,0 31.031,2.528 45.715,7.582 14.687,5.053 27.557,11.685 38.613,19.896 l -21.319,37.428 c -10.106,-7.264 -20.372,-12.635 -30.793,-16.11 -10.424,-3.471 -21.637,-5.209 -33.64,-5.209 -12,0 -20.686,2.132 -26.054,6.394 -5.371,4.266 -8.055,9.713 -8.055,16.345 0,3.16 0.632,6.08 1.896,8.766 1.264,2.684 3.63,5.448 7.105,8.29 3.475,2.843 8.135,5.765 13.976,8.764 5.844,3.001 13.502,6.397 22.977,10.186 13.899,5.368 26.057,10.5 36.479,15.398 10.424,4.895 19.187,10.422 26.295,16.58 7.106,6.159 12.397,13.344 15.872,21.557 3.472,8.21 5.21,18.159 5.21,29.844 v 0.003 z m 226.937,-57.324 c 0,20.528 -2.842,38.924 -8.528,55.19 -5.685,16.268 -13.581,30.006 -23.688,41.218 -10.107,11.212 -21.95,19.74 -35.53,25.581 -13.58,5.844 -28.426,8.766 -44.533,8.766 -15.792,0 -30.32,-3.08 -43.585,-9.24 -13.264,-6.158 -24.793,-14.921 -34.585,-26.292 -9.79,-11.37 -17.45,-24.95 -22.977,-40.742 -5.527,-15.792 -8.29,-33.48 -8.29,-53.061 0,-20.214 2.843,-38.376 8.528,-54.482 5.683,-16.107 13.502,-29.768 23.45,-40.98 9.948,-11.212 21.634,-19.74 35.06,-25.581 13.422,-5.845 28.03,-8.767 43.819,-8.767 15.792,0 30.479,3.081 44.06,9.24 a 105.774,105.774 0 0 1 35.294,25.82 c 9.949,11.053 17.686,24.555 23.213,40.506 5.53,15.948 8.292,33.557 8.292,52.824 z m -49.27,1.42 c 0,-25.582 -5.605,-45.875 -16.817,-60.88 -11.213,-15 -26.77,-22.503 -46.666,-22.503 -18.634,0 -33.242,7.502 -43.822,22.504 -10.58,15.004 -15.871,34.824 -15.871,59.459 0,27.477 5.685,48.4 17.056,62.771 11.368,14.37 26.372,21.557 45.007,21.557 9.157,0 17.527,-2.21 25.108,-6.632 7.579,-4.421 14.055,-10.344 19.423,-17.767 5.37,-7.423 9.475,-16.186 12.317,-26.293 2.843,-10.107 4.266,-20.846 4.266,-32.216 z m 206.557,-72.958 a 82.576,82.576 0 0 0 -16.58,-6.632 c -5.685,-1.58 -12.635,-2.37 -20.845,-2.37 -15.475,0 -27.478,5.368 -36.006,16.107 -8.528,10.742 -12.79,26.69 -12.79,47.85 v 142.126 h -48.8 v -248.72 h 48.8 v 23.688 c 5.682,-8.214 13.501,-15.081 23.45,-20.61 9.947,-5.527 21.08,-8.29 33.398,-8.29 10.106,0 18.4,0.87 24.873,2.607 6.476,1.734 12.238,4.342 17.291,7.817 l -12.79,46.427 z"
       inkscape:connector-curvature="0"
       style="fill:#ef6639;fill-rule:nonzero" /><path
       id="path8693"
       d="m 1793.665,169.726 v 86.698 h 95.226 v 48.794 h -95.23 v 147.338 h -49.74 v -331.63 h 213.662 v 48.8 z m 172.004,282.83 V 132.774 l 48.8,-25.585 v 345.367 z m 297.988,-125.543 c 0,20.528 -2.845,38.924 -8.53,55.19 -5.683,16.268 -13.58,30.006 -23.686,41.218 -10.107,11.212 -21.951,19.74 -35.533,25.581 -13.581,5.844 -28.427,8.766 -44.533,8.766 -15.792,0 -30.32,-3.08 -43.585,-9.24 -13.264,-6.158 -24.793,-14.921 -34.585,-26.292 -9.79,-11.37 -17.45,-24.95 -22.977,-40.742 -5.527,-15.792 -8.29,-33.48 -8.29,-53.061 0,-20.214 2.842,-38.376 8.528,-54.482 5.685,-16.107 13.502,-29.768 23.45,-40.98 9.948,-11.212 21.636,-19.74 35.059,-25.581 13.423,-5.845 28.03,-8.767 43.822,-8.767 15.793,0 30.477,3.081 44.058,9.24 a 105.774,105.774 0 0 1 35.294,25.82 c 9.948,11.053 17.689,24.555 23.215,40.506 5.527,15.948 8.29,33.557 8.29,52.824 z m -49.272,1.42 c 0,-25.582 -5.606,-45.875 -16.819,-60.88 -11.212,-15 -26.766,-22.503 -46.665,-22.503 -18.635,0 -33.242,7.502 -43.822,22.504 -10.58,15.004 -15.872,34.824 -15.872,59.459 0,27.477 5.686,48.4 17.057,62.771 11.37,14.37 26.372,21.557 45.007,21.557 9.16,0 17.53,-2.21 25.11,-6.632 7.58,-4.421 14.053,-10.344 19.424,-17.767 5.368,-7.423 9.474,-16.186 12.317,-26.293 2.843,-10.107 4.263,-20.846 4.263,-32.216 z m 289.938,124.123 h -41.69 l -33.637,-125.543 a 1119.673,1119.673 0 0 1 -7.34,-29.136 c -2.373,-9.948 -4.187,-17.926 -5.45,-23.926 a 1156.906,1156.906 0 0 1 -5.448,24.161 994.57,994.57 0 0 1 -7.344,29.374 l -33.163,125.073 h -41.69 l -68.22,-248.724 h 48.323 l 29.371,120.808 a 595.09,595.09 0 0 1 7.105,29.844 c 2.211,10.425 3.948,18.638 5.213,24.638 l 6.158,-24.635 a 4044.692,4044.692 0 0 1 7.582,-29.847 l 33.16,-120.808 h 39.324 l 33.637,121.282 c 2.54,9.846 4.985,19.717 7.34,29.608 2.37,9.948 4.345,18.083 5.924,24.4 1.578,-6.317 3.395,-14.607 5.447,-24.873 a 481.266,481.266 0 0 1 6.87,-29.609 l 29.374,-120.808 h 48.323 z"
       inkscape:connector-curvature="0"
       style="fill:#a6a7a9;fill-rule:nonzero" /></g></svg>